<svg width="82" height="82" viewBox="0 0 82 82" fill="none" xmlns="http://www.w3.org/2000/svg">
<g clip-path="url(#clip0_296_1147)">
<path d="M41.2622 10.0222C41.1798 9.99266 41.0918 9.98202 41.0048 9.99111C40.9076 10.0002 40.7572 10.0154 40.594 10.0359C40.3359 10.123 40.0787 10.2138 39.8226 10.3085C39.9284 10.3303 40.0368 10.3369 40.1445 10.3282C40.4831 10.2811 40.9797 10.2151 41.0086 10.1004C40.9298 10.112 40.8505 10.1193 40.7709 10.1225C40.9382 10.1096 41.1032 10.0759 41.2622 10.0222ZM41.3183 9.79978C41.1219 9.86153 40.9258 9.9248 40.7299 9.98959C40.8362 9.98124 40.9433 9.97365 41.0564 9.9615C41.2348 9.93189 41.3548 9.90152 41.4869 9.87874C41.466 9.85453 41.4401 9.83513 41.411 9.82189C41.3819 9.80865 41.3503 9.80188 41.3183 9.80206V9.79978ZM42.5863 10.4527C42.3866 10.4565 42.2887 10.5446 42.1391 10.5401C41.8293 10.5757 41.5795 10.4884 41.6031 10.3707C41.5985 10.354 41.5955 10.3586 41.6251 10.2994C41.5303 10.3017 41.4355 10.2956 41.3419 10.2811C41.1551 10.3358 40.7724 10.4057 40.7276 10.4953C40.72 10.5659 40.9782 10.537 41.089 10.5476C41.0556 10.5598 41.0807 10.5871 41.0655 10.6236C41.0245 10.6372 40.925 10.6509 40.9038 10.6562C40.9607 10.6775 41.0344 10.6562 41.2075 10.6524C41.0946 10.7124 40.9693 10.7452 40.8415 10.7481C40.1384 10.7838 39.9259 10.6365 39.4559 10.6623C39.345 10.6805 39.2152 10.6744 39.1096 10.6987C39.1059 10.6395 39.0459 10.6304 38.9859 10.6342C38.5197 10.822 38.0576 11.0207 37.5995 11.2302C37.6278 11.2295 37.6559 11.2249 37.683 11.2166C37.7863 11.2166 37.9928 11.2105 38.1856 11.193C38.3785 11.1756 38.5607 11.1277 38.8272 11.0852C38.8447 11.0396 38.9327 11.0154 39.0193 10.9964C39.014 11.0822 39.1286 11.0594 39.2311 11.0989C39.0261 11.1065 38.8409 11.0989 38.7832 11.209C38.768 11.2538 38.9935 11.275 39.1787 11.2515C39.5248 11.2174 39.8683 11.1603 40.2068 11.0806C40.2508 11.0806 41.2697 10.9083 41.2842 10.9121C41.2986 10.9159 42.2112 10.8946 42.3137 10.8703C42.4656 10.8514 42.8824 10.6904 42.9151 10.5826C42.9424 10.4877 42.786 10.452 42.5863 10.455V10.4527ZM39.4437 10.4839L39.323 10.4968L39.0952 10.5871C39.2038 10.5811 39.3116 10.5697 39.4194 10.553C39.4528 10.5537 39.4407 10.5218 39.4437 10.4861V10.4839ZM55.7192 11.9591C55.3578 11.8969 55.2561 11.8407 54.8764 11.7944C54.7595 11.7944 54.5856 11.7716 54.5856 11.8513C54.5712 11.9394 54.761 11.9652 54.922 12.0274C54.7975 12.095 55.0905 12.1899 55.4277 12.234H55.4216C55.7253 12.2803 55.8642 12.2446 56.048 12.2583C56.2138 12.31 56.383 12.3501 56.5544 12.3782C56.685 12.3926 56.7928 12.3782 56.8581 12.322C56.5491 12.2142 56.1748 12.0259 55.7192 11.9614V11.9591ZM55.0465 11.2841C55.0913 11.2925 55.137 11.2948 55.1824 11.291C54.9341 11.108 54.5234 11.0343 53.8499 10.9584C52.9585 10.8438 52.6852 10.963 51.7376 10.8901C51.3132 10.8574 50.9913 10.7868 50.5821 10.7268C50.519 10.7268 50.2951 10.7891 50.3156 10.6782C50.3156 10.6547 50.4029 10.6555 50.4355 10.657C50.1964 10.5644 49.7871 10.6221 49.6968 10.4748C49.9245 10.4991 50.1424 10.5112 50.3672 10.518C50.2214 10.43 49.4614 10.4368 49.6011 10.2963C49.4996 10.298 49.3981 10.2924 49.2974 10.2796C49.1869 10.3112 49.0714 10.321 48.9572 10.3085C48.3886 10.2751 48.2952 10.067 47.545 10.0572C47.3544 10.0488 47.0561 10.0374 47.0348 10.1278C47.0477 10.1991 48.0135 10.3556 48.1942 10.3601C48.31 10.3699 48.4267 10.3554 48.5366 10.3176C48.8046 10.4414 48.8608 10.5135 49.163 10.6433C49.103 10.6433 48.9489 10.6706 48.9489 10.7268C48.9345 10.887 49.7438 11.0305 50.1311 11.0685C50.295 11.0618 50.4579 11.0381 50.617 10.9979C50.6724 11.0176 50.7628 10.9979 50.8205 11.0146C50.7635 11.1421 51.2912 11.1877 51.6602 11.1733H51.664C52.1196 11.2302 52.5668 11.2621 53.02 11.3031C53.1871 11.3031 53.2083 11.2674 53.4467 11.2705C53.49 11.3175 53.5584 11.3798 53.7801 11.3995C54.3806 11.4755 55.1194 11.5757 55.1817 11.3623C55.1075 11.3633 55.0338 11.3515 54.9637 11.3274C54.9911 11.3054 55.0207 11.3054 55.0465 11.2841ZM46.5922 11.5575C46.6058 11.4815 46.6423 11.5575 46.659 11.4656C46.6757 11.3737 46.1692 11.4565 46.0356 11.4459C46.1556 11.4102 46.5754 11.3509 46.6164 11.2279C46.6111 11.1892 46.5033 11.1589 46.4585 11.1642C46.2194 11.1702 46.025 11.1505 45.7881 11.1528C45.4168 11.1611 45.0615 11.1292 44.7737 11.2219C44.7286 11.229 44.6855 11.2453 44.6469 11.2697C44.6249 11.373 44.9392 11.3456 45.1632 11.3509C45.1602 11.4075 45.1487 11.4633 45.1291 11.5165C45.0457 11.5233 44.9619 11.5233 44.8785 11.5165C44.6006 11.5165 44.3599 11.4489 44.1458 11.4459C44.1283 11.4776 44.1201 11.5137 44.1223 11.5499C44.5695 11.7275 45.0714 11.6934 45.5292 11.8893C45.618 11.9356 45.637 11.9918 45.883 12.0047C46.0144 12.0047 46.0842 11.9348 46.2399 11.9143C46.8169 11.8657 46.8359 11.9599 46.9771 11.6015C46.889 11.5878 46.6521 11.5643 46.5929 11.5575H46.5922ZM63.1387 10.9668C62.5956 10.7314 62.0451 10.5104 61.4873 10.3039C61.1692 10.2439 60.8495 10.187 60.5238 10.1376C60.6438 10.1376 60.684 10.1642 60.7888 10.1589C60.4608 10.0071 59.17 9.72841 58.7934 9.65172C58.6502 9.61629 58.5052 9.58744 58.3584 9.56517C58.227 9.54543 58.1306 9.48924 57.8884 9.449C57.6682 9.40952 57.6181 9.46874 57.3919 9.42395C57.1474 9.40269 57.0882 9.31993 56.789 9.27209C56.7265 9.27728 56.6637 9.27601 56.6015 9.2683C55.9827 9.18554 55.3866 9.09367 54.7663 8.99724C54.6054 8.99117 54.4877 8.96156 54.3966 8.99724C54.1688 9.00559 54.3586 8.99724 54.0739 8.96611C53.5963 8.91524 53.4004 8.98206 53.2577 9.05191C53.1058 9.03293 52.487 8.88715 52.1727 8.85678C51.8326 8.82945 52.0512 8.93802 51.5137 8.88943C51.5137 8.916 51.4377 8.91448 51.3808 8.91069C51.2715 8.90537 51.153 8.8917 51.0209 8.88487C50.5532 8.84007 49.5024 8.85602 49.3672 8.93726C49.4863 8.95535 49.6067 8.96398 49.7271 8.96307C49.8031 8.96307 49.9002 8.94637 49.9762 8.94789C50.1403 8.94806 50.3044 8.9577 50.4674 8.97674C50.3102 8.97415 50.1531 8.9884 49.9989 9.01926C50.0954 9.04111 50.193 9.05784 50.2913 9.06937C50.6071 9.07696 50.6231 9.00939 50.9556 9.039C51.0652 9.04281 51.1745 9.05347 51.2829 9.07089C50.8501 9.07089 50.4477 9.03369 50.2495 9.13011C50.3687 9.13011 50.6967 9.16504 51.0232 9.18174C50.8732 9.1744 50.7229 9.17922 50.5737 9.19617C50.6846 9.24172 51.1348 9.31461 51.4711 9.34802C51.5932 9.35918 51.7161 9.35509 51.8371 9.33587L52.052 9.35485C51.9449 9.41711 52.3701 9.46495 52.7057 9.50139C52.8241 9.51506 52.8948 9.47709 53.0375 9.49304C53.1802 9.50898 53.301 9.54467 53.613 9.58946C54.1604 9.62211 54.5067 9.66539 54.8445 9.64185C54.9205 9.654 55.0154 9.66083 55.089 9.67374C54.828 9.70106 54.5652 9.70716 54.3032 9.69196C54.0116 9.66691 53.7671 9.62135 53.4794 9.59554C53.4467 9.6092 53.3678 9.60085 53.3632 9.62667C53.3632 9.66691 53.8894 9.80661 53.9706 9.83167C53.506 9.7808 53.3792 9.65172 52.9532 9.56972C52.6283 9.5105 52.2699 9.4938 52.0778 9.47709C51.9958 9.46279 51.9127 9.45568 51.8295 9.45583C51.881 9.49826 51.9451 9.52254 52.0117 9.52493C51.8493 9.50594 51.664 9.47102 51.6572 9.53176C51.6572 9.65248 52.7513 9.72006 52.7702 9.8552C52.7452 10.0427 52.2684 9.8962 51.8439 9.89089C51.6656 9.88479 51.4884 9.92205 51.3277 9.99946C51.3277 10.026 51.3277 10.0268 51.3223 10.0541C51.4068 10.0548 51.4911 10.0619 51.5744 10.0754C51.6245 10.0602 51.6944 10.067 51.7452 10.0572C51.8212 10.0625 51.9222 10.0724 51.9973 10.0792C51.9867 10.2401 52.506 10.2994 52.7368 10.3829C52.6488 10.3723 52.5227 10.3624 52.4331 10.3525C52.1173 10.2766 51.9381 10.1657 51.3998 10.1293C51.2115 10.1179 50.9974 10.0534 50.9738 10.143C50.9738 10.2652 51.3201 10.2713 51.5175 10.3282C51.1568 10.3867 50.3026 10.2333 50.2632 10.4262C50.2632 10.4467 50.314 10.4725 50.4279 10.477C50.4992 10.4817 50.5706 10.4701 50.6367 10.4429C51.2343 10.5545 51.6655 10.6152 52.2403 10.6706C52.5015 10.6949 52.6017 10.6547 52.7513 10.6706C53.1795 10.7192 53.5971 10.7549 54.0215 10.8081C54.3609 10.8422 54.1817 10.906 54.575 10.9493C54.9546 11.0176 55.8999 11.0731 55.9189 10.9599C55.9303 10.9007 55.7124 10.8969 55.6691 10.884C55.5305 10.8575 55.3906 10.8383 55.25 10.8263C55.2659 10.6744 55.9333 10.8665 55.95 10.7018C55.9576 10.6615 55.8604 10.6638 55.8339 10.6145C56.1133 10.6775 56.379 10.6965 56.6599 10.7382C56.9363 10.7382 57.0547 10.6319 57.3873 10.6471C57.2403 10.5578 57.079 10.4943 56.9105 10.4596C57.2354 10.5218 57.4131 10.5765 57.3789 10.4596C57.2271 10.4383 57.0752 10.4087 56.9234 10.3836C57.1641 10.3799 57.5786 10.4277 57.9378 10.4596C58.1921 10.4907 58.5452 10.6023 58.7676 10.6008C59.2437 10.5955 59.5588 10.5142 60.192 10.5795C60.7318 10.6706 61.5807 10.8073 61.9072 10.7944C61.5275 10.698 60.9414 10.5818 60.7744 10.5029C61.5913 10.5788 62.2929 10.8445 62.86 10.8961C62.9547 10.9133 63.048 10.9369 63.1394 10.9668H63.1387ZM46.1882 12.5278C45.8466 12.5065 45.8845 12.6956 45.6704 12.7313C45.6112 12.7404 45.3029 12.6956 45.2855 12.7594C45.3082 12.7692 46.5231 12.9963 46.7546 13.0031C46.946 13.0031 47.0219 12.9408 47.2049 12.9082C47.1107 12.8102 46.4562 12.5399 46.1882 12.5278ZM74.2618 19.1053C71.3755 15.8027 67.8303 13.1404 63.8539 11.2894C63.696 11.2538 63.5236 11.2135 63.2814 11.1543C62.8061 11.0412 63.2716 11.3396 62.7393 11.2021L62.7515 11.1961C62.6144 11.17 62.4819 11.124 62.3582 11.0594C62.0689 11.067 61.4167 10.9835 60.8951 10.9303C60.8252 10.903 60.5914 10.8658 60.5914 10.9303C60.6043 11.0594 61.482 11.2097 61.7606 11.2872C61.7902 11.455 61.6354 11.439 61.381 11.4276C61.05 11.3995 60.4965 11.215 60.0531 11.168C59.7547 11.1239 59.5891 11.1611 59.2984 11.1201C58.9423 11.0829 58.3812 10.9303 58.3872 11.0753C58.4222 11.1786 59.9627 11.5916 60.0212 11.6068C60.2163 11.6364 60.3833 11.6888 60.58 11.7222C60.6042 11.7355 60.632 11.7406 60.6593 11.7369C60.6866 11.7333 60.712 11.7209 60.7318 11.7017C60.9452 11.7442 61.1358 11.805 61.3613 11.8414C61.2998 11.9174 61.3279 11.9174 61.1722 11.9174C60.8632 11.8528 60.5769 11.7837 60.2672 11.723C60.1721 11.7409 60.0741 11.7354 59.9817 11.707C59.8602 11.682 59.7053 11.66 59.5793 11.6311C59.4532 11.6023 59.1412 11.5438 59.1009 11.6493C59.4092 11.7594 59.3082 11.6858 59.6689 11.7579C59.8632 11.786 60.0614 11.9098 60.3234 11.9857C60.2474 12.0404 60.1609 12.0069 60.0083 12.0092C60.3483 12.1626 60.7029 12.2817 61.0667 12.3646C61.1859 12.3699 61.1707 12.401 61.2717 12.3911C61.2231 12.3684 61.1578 12.3334 61.1077 12.3152C61.1836 12.3258 61.2398 12.3281 61.4235 12.3615C61.6073 12.3949 61.7606 12.4792 61.9011 12.5134C62.1213 12.5437 62.1972 12.5134 62.3923 12.5582C62.5685 12.5969 62.696 12.6386 62.8578 12.6713C64.6041 13.1109 65.6313 13.7661 66.159 14.4244C66.1583 14.4562 66.1643 14.4877 66.1765 14.5171C66.301 14.5763 66.528 14.615 66.5561 14.7312C66.5721 14.883 66.2524 14.7699 66.2866 14.905C66.2866 15.0265 66.4278 15.0569 66.6996 15.1328C66.9084 15.1769 66.8993 15.1062 67.0405 15.1328C67.509 15.2961 67.7018 15.6142 68.143 15.8275C68.1468 15.8792 68.1544 15.927 68.0238 15.8792C67.6836 15.7698 67.4589 15.5998 67.1506 15.5094C67.0664 15.4765 66.9796 15.4511 66.8909 15.4335C66.9881 15.6354 68.0192 16.0044 68.4778 16.2026C68.3814 16.3499 68.2037 16.3355 68.1414 16.5139C67.9349 16.397 67.938 16.4091 67.7428 16.4015C67.7481 16.4015 67.7428 16.4099 67.7428 16.4152C67.4566 16.4357 67.408 16.5397 67.2205 16.6156C67.2225 16.6695 67.2307 16.723 67.2448 16.7751C67.3477 16.7824 67.4479 16.8116 67.5386 16.8609C67.5029 16.9459 67.4088 16.9118 67.4179 16.9922C67.4406 17.179 67.8552 17.3719 67.9623 17.5381C68.0162 17.6141 68.0837 17.7826 68.1422 17.8191C68.411 17.9709 68.4345 17.7963 68.6813 18.0021C68.5644 18.015 68.4694 17.9755 68.4846 18.0719C68.5112 18.2997 69.0639 18.9071 69.3828 19.1144C69.4155 19.1493 69.4238 19.2321 69.5036 19.2958C69.7609 19.4348 69.865 19.4424 70.0001 19.6496C70.1641 19.6982 70.3744 19.677 70.568 19.7385C70.9135 19.8638 70.937 20.1659 71.2696 20.2905C71.3569 20.289 71.4438 20.3018 71.527 20.3284C71.546 20.3831 71.6029 20.4173 71.6978 20.459C72.0478 20.5691 71.8254 20.1553 72.1093 20.1705C72.0676 20.0855 72.06 19.8919 72.0334 19.7734C71.9932 19.5456 72.5816 19.737 72.5565 19.5122C72.5193 19.4363 72.3986 19.3513 72.3774 19.3004C72.3819 19.2617 72.3933 19.2708 72.4457 19.2556C72.4457 19.2275 72.413 19.207 72.407 19.1797C72.3462 18.964 73.0144 19.2829 73.2201 19.2693C73.372 19.2571 73.2475 19.185 73.4061 19.2138C73.416 19.2655 73.4289 19.2898 73.4388 19.3406C73.5026 19.3794 73.5466 19.3756 73.6058 19.4166C73.8131 19.434 74.1882 19.6398 74.3651 19.6284C74.6126 19.6079 74.1229 19.1113 74.2618 19.106V19.1053ZM68.8111 49.9783C68.7397 49.9783 68.5644 50.1757 68.5697 49.9411C68.455 49.9411 68.3419 49.8393 68.266 49.7748C68.2569 49.7915 68.2227 49.7748 68.2037 49.7748C67.9926 49.7581 67.8742 49.9616 67.8241 50.2303C67.8066 50.3974 68.149 50.7132 68.392 50.7254C68.5917 50.7254 68.8589 50.3009 68.8969 50.1438C68.8939 50.1111 68.8688 49.9805 68.8111 49.9783ZM66.9942 15.5701C66.8484 15.5413 66.6905 15.5056 66.6905 15.6058C66.7673 15.7429 66.883 15.8542 67.0231 15.9255C67.1324 15.9308 67.2258 15.9847 67.3435 16.0211C67.591 16.0781 67.8749 16.1684 67.8932 16.0675C67.512 15.8928 67.3738 15.6947 66.9942 15.5701ZM68.2925 24.5514C68.1976 24.5833 68.2493 24.622 68.0898 24.5848C68.0898 24.5036 67.9805 24.4117 67.9699 24.3571C67.9744 24.3092 68.1096 24.3032 68.1217 24.1976C68.0654 24.1779 68.0041 24.1779 67.9478 24.1976C67.9342 24.004 67.9478 23.9015 67.9478 23.7793C67.8719 23.799 67.6669 23.7595 67.4854 23.6806C67.4222 23.6932 67.3576 23.6968 67.2934 23.6912C67.285 23.6707 67.285 23.6478 67.2934 23.6274C67.206 23.6137 67.0891 23.5879 67.0026 23.5674C66.9988 23.5325 66.998 23.4869 66.998 23.452C67.0276 23.4399 67.0481 23.4171 67.0739 23.4049C66.9959 23.3472 66.9062 23.3071 66.8112 23.2873C66.711 23.2652 66.7087 23.3381 66.5698 23.3396V23.225C66.6503 23.02 66.9904 22.9433 66.9828 22.6723C66.9747 22.64 66.9599 22.6098 66.9393 22.5837C66.9188 22.5575 66.893 22.536 66.8636 22.5204C66.6009 22.4657 66.5189 22.654 66.3913 22.7937C66.156 23.0504 65.9836 23.5781 65.525 23.6722C65.5571 23.7181 65.6054 23.7501 65.6602 23.7618C65.6754 23.7785 65.6663 23.8172 65.6602 23.8377C65.6602 23.843 65.3671 23.9896 65.361 24.0306C65.3946 24.1052 65.4563 24.1636 65.5326 24.1931C65.7217 24.2363 65.7938 24.165 66.0527 24.2128C66.2471 24.2356 66.3374 24.3479 66.5531 24.4003C66.6619 24.4148 66.7722 24.4148 66.8811 24.4003C66.9798 24.5522 67.1787 24.5066 67.3366 24.5446C67.2941 24.6144 67.1681 24.5788 67.1628 24.7169C67.1574 24.7397 67.2311 24.7329 67.2607 24.7367C67.4574 24.7709 67.5857 24.6175 67.7163 24.4801C67.8469 24.616 67.7618 24.8399 67.8886 24.8642C67.9323 24.8793 67.9751 24.8968 68.0169 24.9166C68.0184 24.9601 68.034 25.0019 68.0614 25.0356C68.0888 25.0693 68.1265 25.0931 68.1688 25.1034C68.3297 25.1361 68.4171 25.0001 68.4117 24.8437C68.4231 24.7306 68.3024 24.7078 68.2925 24.5514ZM46.1981 10.1954C46.0827 10.209 45.9885 10.2212 45.8617 10.2386C45.5512 10.2121 45.3994 10.187 45.1382 10.1832C45.0403 10.1748 44.9417 10.1771 44.8443 10.19C44.9256 10.2895 45.1116 10.266 45.3963 10.266C45.3811 10.3229 45.3849 10.3328 45.3697 10.3897C44.9484 10.4072 44.8656 10.2561 44.5011 10.2743C44.5065 10.3054 44.4791 10.3092 44.4852 10.3404C44.5406 10.3859 44.6689 10.4087 44.7889 10.4322C44.2734 10.4725 44.1056 10.2045 43.6341 10.2219C43.5712 10.2124 43.5072 10.2142 43.445 10.2272C43.4815 10.2272 43.4617 10.2599 43.4815 10.2887C43.4745 10.2869 43.4679 10.2841 43.4617 10.2804C43.4519 10.3282 43.445 10.3335 43.4352 10.3799C43.5604 10.4195 43.692 10.4352 43.8231 10.4262C43.8573 10.4262 43.8398 10.455 43.8573 10.4808C43.938 10.472 44.0192 10.4699 44.1003 10.4748C44.076 10.5173 44.1633 10.5461 44.2794 10.5401C44.6067 10.5439 45.1814 10.474 45.4851 10.474C45.5495 10.484 45.6144 10.4898 45.6795 10.4915C45.5854 10.5234 45.2786 10.5104 45.2498 10.578C45.2369 10.6 45.2498 10.6129 45.2369 10.6357C45.1885 10.6378 45.1428 10.6585 45.1093 10.6934C45.0994 10.7656 45.533 10.723 45.6309 10.723C45.6742 10.717 46.0394 10.7154 46.3006 10.7003C46.2657 10.5484 46.4699 10.455 46.5033 10.3396C46.5367 10.2242 46.501 10.2045 46.1973 10.1954H46.1981ZM52.4605 9.75726C52.2327 9.73372 51.8159 9.63957 51.6511 9.62743C51.6215 9.62743 51.3671 9.66463 51.3671 9.60313C51.3671 9.56289 51.4894 9.59478 51.4909 9.5477C51.4924 9.50063 51.2973 9.51354 51.2973 9.46646C51.3026 9.38598 51.3277 9.39054 51.09 9.37687C51.0407 9.37687 50.9746 9.36472 50.9245 9.36472C50.9463 9.38303 50.9724 9.39533 51.0004 9.40041C51.0004 9.42926 50.9951 9.42698 50.9951 9.45735C50.9351 9.45735 50.8554 9.44217 50.7954 9.44217C50.6436 9.39054 50.7643 9.33132 50.5114 9.30246C50.2586 9.27361 50.1022 9.30246 49.8532 9.25311C49.5981 9.2273 49.6717 9.10582 49.3521 9.04583C49.0582 9.00483 48.7447 8.98737 48.3293 8.9608C48.3339 9.05267 48.5852 9.02837 48.7803 9.06026C48.7006 9.05115 48.6019 9.06026 48.5267 9.05419C48.3174 9.02931 48.1055 9.03571 47.8981 9.07317C47.961 9.10783 48.0285 9.13339 48.0985 9.14909C48.1828 9.162 48.3825 9.14074 48.5541 9.162C48.4947 9.18684 48.4309 9.19949 48.3665 9.1992C48.2219 9.17313 48.0754 9.15916 47.9284 9.15745C47.7963 9.16428 47.5625 9.11493 47.5488 9.19085C47.5564 9.26678 48.0325 9.26678 48.2527 9.30246C48.2046 9.32265 48.1529 9.33248 48.1008 9.33132C47.9489 9.31765 47.6916 9.28576 47.6156 9.27665C47.5344 9.26451 47.452 9.26298 47.3704 9.27209C47.4205 9.46419 47.7174 9.42926 48.2815 9.43306C48.159 9.46295 48.0332 9.47699 47.9072 9.47482C47.9072 9.51506 47.9133 9.51354 48.0309 9.52113C48.1501 9.51582 48.2154 9.50519 48.3848 9.49835C48.4265 9.54163 48.4379 9.56896 48.6072 9.56289C48.8024 9.57807 48.8502 9.53935 49.1114 9.54998C49.3378 9.55935 49.5635 9.58242 49.7871 9.61907C49.5593 9.61907 48.5412 9.54315 48.5093 9.64944C48.5161 9.74967 48.9496 9.78156 49.2427 9.79294C49.1705 9.81341 49.0952 9.82112 49.0203 9.81572C49.0711 9.89848 49.3999 9.91519 49.6785 9.93189C49.9268 9.95391 50.0893 9.97213 50.0931 9.84989C50.2869 9.90958 50.486 9.95051 50.6876 9.97213C50.6876 9.94252 50.6937 9.941 50.6937 9.91291C50.7855 9.91291 50.9085 9.93417 50.9974 9.93417C50.9381 9.89696 50.8789 9.87646 50.7909 9.82711C50.8668 9.80813 50.9214 9.79674 50.9974 9.77396C51.0369 9.84989 51.0353 9.87191 51.2555 9.88482C51.4833 9.9205 51.7058 9.78156 52.0535 9.80889C52.1719 9.8218 52.3724 9.84913 52.4392 9.8218C52.4855 9.8013 52.4551 9.80357 52.4597 9.75726H52.4605ZM45.9939 9.08152C45.9771 9.17719 46.1624 9.14757 46.2581 9.17946C46.3486 9.17339 46.4394 9.17339 46.5299 9.17946C46.5412 9.14754 46.5489 9.11442 46.5527 9.08076C46.4494 9.09215 46.2049 9.07013 45.9931 9.08152H45.9939ZM47.9368 9.73144C47.9543 9.56289 47.3742 9.73145 47.3871 9.59402C47.195 9.60845 46.8921 9.55757 46.8336 9.50519C46.6597 9.52265 46.454 9.50063 46.4433 9.58111C46.3978 9.73296 46.7531 9.7193 46.9391 9.78839C46.8943 9.79294 46.7789 9.80206 46.7653 9.84078C46.7501 9.93493 47.3112 9.88633 47.9133 9.86583C47.8685 9.77776 47.9224 9.78611 47.936 9.73144H47.9368ZM45.5937 9.73144C45.6429 9.71987 45.6903 9.70201 45.7349 9.6783C45.6514 9.66691 45.5072 9.56137 45.2794 9.56137C45.1913 9.5553 45.1169 9.60617 45.0288 9.60617C44.8512 9.61148 44.9051 9.50215 44.5801 9.49683C44.4718 9.51957 44.3623 9.5363 44.2521 9.54694C44.0699 9.531 44.0061 9.48089 43.6774 9.47102C43.4792 9.49076 43.3645 9.51809 43.1633 9.53328C43.1428 9.62743 43.1891 9.59706 43.4063 9.59706C43.3653 9.60769 43.3243 9.64413 43.2825 9.65248C43.4063 9.67982 43.4845 9.64261 43.8338 9.63198C43.7966 9.64033 43.7799 9.68209 43.8171 9.69272C43.6052 9.73676 43.4898 9.72385 43.3243 9.77472C43.4534 9.8142 43.5126 9.79978 43.7404 9.79978C43.975 9.77548 44.1701 9.75422 44.2597 9.80585C44.5535 9.79674 44.7153 9.81345 45.0091 9.81345C45.3887 9.8218 45.3128 9.93417 45.7061 9.94328C45.8223 9.92809 45.9901 9.9577 46.0098 9.87343C46.0295 9.78915 45.7144 9.7732 45.593 9.7322L45.5937 9.73144ZM42.789 9.87874C42.7586 9.97896 43.098 10.0754 43.2803 10.0678C43.3835 10.0678 43.4906 10.0458 43.5209 9.99187C43.1922 9.95239 43.1937 9.86128 42.7883 9.8795L42.789 9.87874ZM43.5088 10.5849C43.2567 10.5955 43.1011 10.6608 43.0168 10.7526C43.1337 10.7526 43.1808 10.7526 43.338 10.7526C43.4253 10.7526 43.5779 10.7663 43.5991 10.6714C43.6098 10.6137 43.5369 10.6296 43.5058 10.5856L43.5088 10.5849ZM44.6378 9.88178C44.5809 9.88178 44.1823 9.98656 44.4738 9.96606C44.7297 9.96606 44.9013 9.96606 44.9992 9.9205C44.8801 9.89566 44.7588 9.88294 44.6371 9.88254L44.6378 9.88178ZM47.8009 10.5446C47.4213 10.5044 47.4554 10.6608 47.277 10.6623C47.2474 10.6623 47.0788 10.6722 47.0439 10.7451C47.0439 10.7451 47.9937 10.9189 48.1069 10.9417C48.3491 10.9501 48.4508 10.8658 48.4728 10.7656C48.4888 10.6615 48.1 10.5439 47.8001 10.5454L47.8009 10.5446ZM48.6437 9.96985C48.5722 9.97366 48.5005 9.97061 48.4296 9.96074C48.1076 9.95315 47.5321 9.95239 47.3453 9.99263C47.3453 9.99263 48.302 10.0784 48.3764 10.0868C48.5078 10.0997 48.6323 10.0822 48.6323 10.042C48.6543 10.0222 48.6437 10.0093 48.6429 9.97061L48.6437 9.96985ZM37.1971 11.4884C37.1119 11.4976 37.0278 11.5147 36.9458 11.5392C36.1632 11.9204 35.3966 12.3344 34.646 12.7814C34.6723 12.789 34.6999 12.7913 34.7272 12.7882C34.8373 12.748 35.8524 12.4739 35.8972 12.4268C35.9663 12.2955 36.6747 11.9591 37.1561 11.8429C37.3041 11.7981 38.0839 11.6759 38.1431 11.6076C38.1689 11.4732 37.5076 11.4421 37.1963 11.4876L37.1971 11.4884ZM62.8244 22.607C63.0286 22.774 63.5381 23.1179 63.8243 23.1681C63.9374 23.1992 64.0164 23.1863 64.0657 23.1316C63.6922 22.9038 63.3718 22.6259 62.8244 22.607ZM63.8995 24.4292C63.718 24.4011 63.5525 24.3738 63.368 24.3426C63.1964 24.2667 63.0643 24.2249 62.98 24.064C62.9609 24.0695 62.9436 24.0803 62.9302 24.095C62.9168 24.1098 62.9078 24.1279 62.9041 24.1475C62.9291 24.2234 63.5608 24.597 63.6816 24.6236C63.7096 24.6152 63.8888 24.5788 63.8919 24.5112C63.8759 24.4937 63.8919 24.4527 63.8919 24.4292H63.8995ZM59.5823 38.6463C59.5993 38.6655 59.6173 38.6837 59.6362 38.701C59.3204 38.4967 59.227 38.1824 58.6006 38.1201C58.3804 38.1027 58.2696 38.1665 58.016 38.1437C57.8839 38.1331 57.7525 37.988 57.5604 37.9721C57.5257 37.9775 57.4926 37.9909 57.4639 38.0111C57.4352 38.0314 57.4116 38.0581 57.3949 38.089C57.3782 38.171 57.5467 38.3115 57.6325 38.3168C57.6197 38.388 57.6224 38.4611 57.6403 38.5312C57.6583 38.6013 57.6911 38.6667 57.7366 38.723C57.4845 38.8126 57.3159 38.7078 56.8589 38.6691C56.8437 38.6812 56.7829 38.7374 56.7548 38.7336V38.7382C56.7632 38.8225 56.8497 39.0252 56.9659 39.0594C56.9713 39.0078 56.982 38.9569 56.9978 38.9075C57.0661 38.9569 57.0851 38.9227 57.2317 38.928C57.4473 38.9546 57.9218 38.9364 58.101 39.0586C58.1602 39.1186 58.1238 39.3038 58.3136 39.3221C58.5315 39.3342 58.5338 39.0108 58.7836 39.0229C58.8595 39.0282 58.8808 39.1269 58.9696 39.1322C59.0706 39.1444 59.1845 39.0776 59.3264 39.013C59.5649 39.0343 59.8002 39.0502 60.0318 39.0738C59.9012 38.8824 59.7539 38.7906 59.5823 38.6463ZM64.8546 24.5241C64.8645 24.4778 64.7627 24.4155 64.7339 24.3722C64.5744 24.3943 64.3376 24.6881 64.3376 24.7579C64.3376 24.8278 64.437 24.9311 64.6154 24.9531C64.8068 25.0001 64.9951 24.9265 64.9951 24.8445V24.7519C64.598 24.6759 64.8637 24.6501 64.8546 24.5241ZM60.927 39.0563C60.8829 39.0502 60.7113 39.0799 60.7121 39.1497C60.6977 39.3403 60.949 39.3775 61.1676 39.3965C61.2557 39.4003 61.4182 39.4185 61.4767 39.3099C61.4395 39.2226 60.9687 39.0639 60.927 39.0563ZM52.8029 14.2885C52.7763 14.3401 52.9084 14.4214 53.1499 14.4404C53.0352 14.3819 53.0284 14.2741 52.8006 14.2885H52.8029ZM63.532 43.7478V43.7523C63.4454 43.7523 63.3164 43.9323 63.2799 44.132C63.2799 44.1768 63.3968 44.1464 63.4409 44.1411C63.5259 44.1487 63.6406 43.9528 63.6785 43.8966C63.68 43.8503 63.6846 43.8041 63.6922 43.7584C63.6379 43.7582 63.5836 43.7549 63.5297 43.7485L63.532 43.7478ZM55.3403 13.5801C55.5522 13.6166 55.6744 13.5558 55.742 13.4731C55.5377 13.4473 55.1285 13.5429 55.3403 13.5801ZM54.6365 15.8928C54.6365 15.8928 54.8719 16.0348 54.9 16.0447C55.0875 16.0652 55.1217 15.9619 55.2302 15.9126C55.0465 15.8002 54.6517 15.7433 54.6365 15.8928ZM57.1238 37.2493C57.1194 37.2868 57.1169 37.3246 57.1162 37.3624C57.1417 37.3629 57.167 37.3649 57.1922 37.3685C57.3045 37.3683 57.4149 37.339 57.5126 37.2834C57.5179 37.2424 57.5255 37.1559 57.5255 37.1149C57.4572 37.1908 57.2749 37.3009 57.1238 37.2493ZM55.3639 34.0946C55.3449 34.1348 55.4064 34.2578 55.4519 34.2525C55.4185 34.2022 55.389 34.1494 55.3639 34.0946ZM54.7656 33.8197C54.6598 33.8316 54.5601 33.875 54.4793 33.9442C54.5674 33.9442 54.7921 33.9905 54.9926 33.9898C54.9401 33.9079 54.8597 33.8478 54.7663 33.8205L54.7656 33.8197ZM54.7876 34.8948C54.7621 34.8942 54.7367 34.8917 54.7117 34.8872C54.7041 34.9966 54.6836 35.2388 54.8817 35.2608C54.9256 35.2453 54.963 35.2156 54.988 35.1765C54.9797 35.0778 54.9501 34.9313 54.7884 34.8956L54.7876 34.8948ZM52.0679 36.4391C52.0527 36.4391 52.0246 36.4179 52.0095 36.4164C51.9943 36.4149 51.9768 36.4202 51.9692 36.4164C51.9714 36.4607 51.9678 36.5051 51.9586 36.5485C51.9132 36.5452 51.8682 36.5589 51.8325 36.587C51.7967 36.6151 51.7726 36.6555 51.765 36.7003C51.7718 36.7269 52.0315 36.7269 52.0451 36.7224C52.0786 36.6571 52.0672 36.5113 52.0687 36.4399L52.0679 36.4391ZM55.3851 38.7405C55.3965 38.7465 55.4117 38.7716 55.4216 38.7815C55.3381 38.7443 55.0419 38.5985 54.8028 38.5765C54.7443 38.5765 54.5985 38.6167 54.5947 38.6736C54.5811 38.7837 54.7284 38.9667 54.8886 38.9827C55.1285 39.0032 55.3191 38.9439 55.5499 38.925C55.543 38.8818 55.5239 38.8416 55.4949 38.809C55.4658 38.7764 55.428 38.7529 55.3859 38.7412L55.3851 38.7405ZM56.3631 37.4004C56.2871 37.3867 56.1429 37.3624 56.0692 37.3556C56.0672 37.311 56.0705 37.2664 56.0791 37.2227C55.6334 37.1764 55.1543 36.9349 54.8946 36.6441C54.8643 36.6183 54.7056 36.4164 54.575 36.3898C53.9137 36.3283 53.5538 35.8401 52.6647 35.7497C51.7536 35.6776 51.3368 35.9411 50.9609 36.4422C51.0215 36.4423 51.0819 36.4474 51.1416 36.4574C51.3618 36.2843 51.9077 36.0732 52.2957 36.0975C52.3936 36.0967 52.4895 36.1249 52.5713 36.1787C52.5242 36.2167 52.4855 36.2964 52.5941 36.3898C52.7907 36.4073 52.9639 36.4338 53.1726 36.4384C53.4475 36.4748 53.5599 36.7542 53.8454 36.7808C53.9615 36.7914 54.0974 36.7512 54.2607 36.837C54.3146 36.8727 54.2979 37.0109 54.4657 37.0253C54.49 37.329 54.8081 37.329 55.1072 37.4809C55.0893 37.5229 55.0602 37.5593 55.0232 37.586C54.9861 37.6128 54.9425 37.6289 54.8969 37.6327C54.8992 37.668 54.8969 37.7035 54.8901 37.7382C55.2621 37.7754 55.5681 37.925 56.0229 37.966C56.2507 37.9911 56.6136 38.0161 56.7769 37.8089C56.6835 37.7474 56.5756 37.4771 56.3638 37.4011L56.3631 37.4004ZM56.7822 37.8028L56.7769 37.8089L56.7837 37.8142L56.7822 37.8028ZM53.3921 15.4175C53.3716 15.4623 53.1423 15.5026 52.9844 15.5694C52.9763 15.6022 52.9742 15.6361 52.9783 15.6696C53.2577 15.6894 53.7216 15.5747 53.8894 15.5049C53.6798 15.4411 53.7672 15.4494 53.3921 15.4175ZM62.4675 23.6494C62.4789 23.6904 62.4948 23.7603 62.5153 23.6616C62.4991 23.6586 62.4832 23.6545 62.4675 23.6494ZM62.4508 23.6365V23.6426H62.466C62.4607 23.6221 62.4546 23.6077 62.4508 23.6365ZM30.9415 20.9176L31.2225 21.4779C31.3611 21.5261 31.507 21.5502 31.6537 21.5493C31.697 21.5394 31.7494 21.5493 31.7927 21.5387C31.7889 21.5083 31.8139 21.4688 31.8162 21.4362C31.5535 21.2221 31.3189 21.0406 30.9431 20.9176H30.9415ZM53.9418 19.8584C53.9438 19.8897 53.942 19.921 53.9365 19.9518C54.041 20.0453 54.1711 20.1054 54.31 20.1242C54.3267 20.1287 54.3609 20.1394 54.3761 20.1303C54.3776 19.9685 54.1703 19.8827 53.9433 19.8584H53.9418ZM54.045 15.047C53.9691 15.0151 54.0154 14.9605 53.9266 14.8952C53.6229 14.6856 53.0474 14.6978 52.6799 14.4594C52.6237 14.4676 52.5686 14.4824 52.5159 14.5034C52.44 14.4199 52.3504 14.3834 52.2631 14.2688C51.7528 14.2384 51.6556 14.5292 51.6397 14.6598C51.6397 14.7 51.6344 14.7319 51.6306 14.7729C51.6268 14.8139 51.5213 14.8367 51.4438 14.8534C51.4096 14.8914 51.1925 14.8656 51.1614 14.9825C51.4203 14.9885 51.6785 15.0121 51.9343 15.0531C51.8971 15.129 51.8364 15.1943 52.0489 15.2179C52.0762 15.2222 52.104 15.2202 52.1304 15.212C52.1567 15.2038 52.1808 15.1897 52.2008 15.1708C52.4612 15.2421 53.0459 15.1366 53.0641 14.9741C53.1484 15.006 53.733 15.2384 53.733 15.2384C53.8636 15.2626 54.0466 15.2763 54.2166 15.2953C54.413 15.3111 54.6104 15.3068 54.8058 15.2824C54.6509 15.1617 54.3282 15.1746 54.0466 15.047H54.045ZM57.8041 14.1853C57.776 14.1754 57.5908 14.1982 57.5817 14.2202C57.5817 14.268 57.6872 14.3022 57.8049 14.3128C57.9173 14.3386 58.032 14.3523 58.1473 14.3538C58.0439 14.2771 57.9273 14.22 57.8034 14.1853H57.8041ZM55.726 15.5519C55.9007 15.6453 55.9439 15.6453 56.1345 15.6074C55.906 15.5443 55.9128 15.4836 55.7253 15.5557L55.726 15.5519ZM73.7068 52.0981C73.5375 52.0526 73.4175 52.1429 73.2414 52.1049C73.0356 52.029 72.7342 51.6494 72.6401 51.4216C72.4535 51.3176 72.2515 51.2441 72.0418 51.2037C71.8808 51.2348 71.6842 51.2796 71.4928 51.3024C71.2111 51.3252 71.2142 51.0807 70.8854 51.0746C70.7525 51.0837 70.6842 51.1916 70.5324 51.2569C70.4977 51.2546 70.463 51.2546 70.4283 51.2569C70.4649 51.1284 70.4775 50.9943 70.4655 50.8613C70.4519 50.7497 70.3289 50.7785 70.2104 50.6912C70.0297 50.5766 69.5271 50.2706 69.253 50.266C68.9804 50.2789 68.7618 50.6115 68.5613 50.8734C68.5211 50.9425 68.4148 51.0723 68.3563 51.0686C68.3115 51.0686 68.2948 50.9304 68.3039 50.8909C68.187 50.8772 68.0648 50.9015 67.919 50.8909C67.9221 50.8134 67.9032 50.7367 67.8645 50.6695C67.8258 50.6023 67.7689 50.5475 67.7003 50.5113C67.6244 50.4817 67.4725 50.4915 67.4976 50.3298C67.5933 49.8302 68.1809 49.2137 68.496 48.8872C68.5021 48.7528 68.3184 48.7156 68.25 48.5478C68.1992 48.3557 68.0564 47.822 68.0784 47.6162C67.8081 47.5403 67.5295 46.986 67.2584 46.9594C67.225 46.9617 67.1913 46.9602 67.1582 46.9549C67.1628 46.9549 67.1582 46.9298 67.1582 46.9215C66.9957 46.9215 66.7353 46.7696 66.6206 46.7096C66.4923 46.7059 66.3169 46.6907 66.175 46.6907C65.708 46.5844 65.0034 46.6094 64.904 46.1091C64.828 46.103 64.6724 46.0483 64.6488 45.9906C64.4628 45.5351 64.3224 45.5897 64.0073 45.2314C63.8448 45.2314 63.6671 45.2109 63.4993 45.2025C63.4348 44.9558 63.5449 44.7196 63.3012 44.6179C63.0392 44.5222 62.6588 44.4395 62.548 44.176C62.548 44.1396 62.5616 44.0689 62.5616 44.0325C62.6545 44.0596 62.754 44.0532 62.8426 44.0143C62.6731 43.9754 62.5015 43.9468 62.3286 43.9285C62.28 43.9467 61.8798 43.9505 61.8533 43.9862C61.6877 44.1904 61.5336 44.179 61.2459 44.1988C61.1274 44.1935 60.8715 44.1434 60.886 43.9756C60.5473 43.9581 60.2026 43.9285 59.8549 43.9057C59.7661 43.8882 59.6453 43.7539 59.6544 43.5633C59.3841 43.4942 58.9445 43.3552 58.8952 43.0569C58.8086 43.047 58.6416 43.0265 58.5543 43.0265C58.5216 43.2414 58.8344 43.1783 58.8922 43.3985C58.7363 43.3955 58.5806 43.3841 58.426 43.3644C58.2415 43.4691 57.9408 43.4038 57.9051 43.6764C57.8747 43.892 58.0881 44.0279 58.0881 44.2557C58.0759 44.3104 57.9362 44.5328 57.8763 44.5382C57.6409 44.5101 57.5672 44.1585 57.6029 43.9672C57.6029 43.8442 57.7601 43.5041 57.8474 43.2322C57.9019 43.2294 57.9536 43.2071 57.9931 43.1693C58.0325 43.1315 58.0571 43.0808 58.0623 43.0265C58.0623 43.0196 57.9818 42.8124 57.9059 42.7987C57.6781 42.7987 57.5695 43.0409 57.3053 43.1024C56.7852 43.2079 56.4861 43.2611 55.9857 43.3727C55.7253 43.4334 55.5431 43.4608 55.4117 43.7523C55.376 43.8579 55.3054 44.1198 55.1908 44.1957C55.0913 44.2269 54.8711 44.3013 54.8438 44.4827C54.794 44.4968 54.7495 44.525 54.7155 44.564C54.7197 44.6009 54.7166 44.6383 54.7064 44.6741C54.6039 44.7067 54.6183 44.6953 54.4664 44.6574C54.4231 44.6794 54.3465 44.7462 54.3047 44.7705C54.3396 44.7379 54.4178 44.6733 54.452 44.6376C54.1483 44.3863 54.1688 43.8563 53.5857 43.7888C53.0982 43.7546 52.8158 44.0925 52.2843 44.0583C51.9313 44.0204 51.9707 43.7022 51.7528 43.5716C51.4408 43.4016 51.0452 43.2201 51.0649 42.7941C51.0946 42.4145 51.1356 42.0599 51.1591 41.6666C51.2973 41.4935 51.3717 40.7738 51.3869 40.6037C51.4007 40.5117 51.4086 40.4188 51.4104 40.3258C51.0558 40.221 50.9617 39.9044 50.4674 39.8566C49.7537 39.8027 49.204 39.8664 48.5275 39.8103C48.4688 39.8053 48.4137 39.7797 48.372 39.738C48.3303 39.6963 48.3047 39.6412 48.2997 39.5825C48.2961 39.5512 48.2987 39.5194 48.3073 39.4891C48.4075 39.423 48.6869 39.3372 48.7037 39.1489C48.7204 38.8452 48.7477 38.5484 48.7796 38.2583C48.834 38.2585 48.8883 38.2628 48.9421 38.2712C48.9314 38.3024 48.9421 38.3707 48.9314 38.4026C49.0734 38.2302 49.1987 38.1148 49.2253 37.8111C49.2602 37.4512 49.6193 37.1566 49.6489 36.8947C49.6527 36.8545 49.6626 36.7694 49.6626 36.7284C49.5738 36.7216 49.2579 36.6677 49.1987 36.6525C49.0739 36.5911 48.9361 36.5606 48.797 36.5637C48.242 36.5189 47.5336 36.4429 47.4699 36.9866C47.438 37.2645 47.0971 37.4824 46.9824 37.6919C46.9642 37.7443 46.8351 37.9706 46.6741 37.9653C46.6157 37.9653 46.5223 37.8415 46.2998 37.8225C45.8815 37.7899 45.555 38.0161 45.167 37.9926C45.0486 37.9789 45.0152 37.8187 44.8436 37.7428C44.3166 37.5424 44.3531 37.2485 44.0266 36.8818C43.9021 36.7421 43.6584 36.4619 43.5923 36.3101C43.5164 36.1301 43.6348 36.0413 43.5711 35.8651C43.5392 35.8105 43.4025 35.6374 43.4443 35.4855C43.4815 35.1446 43.5103 34.8151 43.5361 34.4613C43.6204 34.1864 43.7738 34.0877 43.8019 33.7468C43.7988 33.6458 43.7809 33.5458 43.7487 33.4499C43.7411 33.4408 43.732 33.4165 43.7411 33.4074C43.7502 33.3983 43.7829 33.4264 43.792 33.4165C43.8026 33.3801 43.71 33.2692 43.71 33.2282C43.7723 32.6884 44.0517 32.2192 44.5163 32.1015C44.7213 32.04 44.8884 32.1888 45.063 32.0484C45.3287 31.857 45.634 31.4288 46.2239 31.4614C46.4517 31.4857 46.5474 31.6672 46.7698 31.6824C46.8556 31.6824 46.9976 31.5564 47.0834 31.5609C47.4904 31.5981 47.8996 32.2275 48.5009 32.0324C48.2678 31.8623 48.4576 31.7105 48.51 31.4516C48.4129 31.4645 48.4273 31.5055 48.2276 31.4296C48.5829 31.3536 48.996 31.4212 49.3278 31.3711C49.3278 31.4083 49.4113 31.5229 49.4561 31.5229C49.5738 31.5374 49.6839 31.3893 49.9724 31.4197C50.4575 31.4539 50.6329 31.9011 51.005 31.9231C51.1386 31.9337 51.2844 31.7112 51.4674 31.7264C52.3625 31.8153 52.036 32.8653 52.3025 33.4947C52.44 33.8068 52.6192 33.923 52.8553 34.2214C52.9532 34.421 52.9183 34.6769 53.222 34.7149C53.569 34.7399 53.6874 34.4112 53.7208 34.0224C53.7497 33.6808 53.5826 33.5016 53.5333 33.2738C53.5396 33.2439 53.5422 33.2133 53.5409 33.1827C53.5697 32.5965 53.0481 32.3839 53.0808 31.7765C53.1969 30.4562 54.1696 30.4714 55.1467 30.0993C55.1338 30.091 55.1088 30.0705 55.0959 30.0614C55.193 29.9923 55.1976 29.9164 55.4466 29.8647C55.5681 29.8602 55.7184 29.722 55.9523 29.7022C56.0351 29.7022 56.1459 29.5838 56.1953 29.5329C56.1243 29.4793 56.0497 29.4306 55.972 29.3871C55.9811 29.3522 55.9766 29.2831 55.9811 29.2474C56.114 29.255 56.2477 29.2854 56.2962 29.1032C56.2256 29.0736 56.1072 29.0554 56.0358 28.9217C56.1117 28.9301 56.2955 28.8883 56.3084 28.7365C56.3147 28.679 56.318 28.6212 56.3183 28.5634C56.2894 28.5451 56.2158 28.5565 56.1816 28.5489C56.1011 28.4593 56.1907 28.4654 56.1968 28.2893C56.2029 28.1131 56.1345 27.7927 56.1345 27.6758C56.1322 27.6005 56.1435 27.5254 56.1679 27.4541C56.1869 27.6401 56.3646 27.902 56.3494 28.0448C56.3494 28.0941 56.3426 28.1845 56.338 28.2338C56.338 28.2604 56.3813 28.3394 56.4094 28.3462C56.4534 28.3371 56.8847 27.7684 56.8976 27.6879C56.8923 27.5794 56.7708 27.5004 56.7404 27.344C56.7756 27.3204 56.8095 27.2951 56.8422 27.2681C56.8657 27.3007 56.9264 27.4146 56.9712 27.4199C57.0745 27.4199 57.5027 26.8732 57.549 26.7495C57.549 26.7495 57.3797 26.5976 57.3865 26.527C57.3729 26.4898 57.4625 26.442 57.5073 26.423C57.5513 26.4336 57.6371 26.445 57.6804 26.4594C57.9636 26.4594 58.1359 26.5156 58.41 26.4594C58.3189 26.3752 58.1063 26.4314 57.9324 26.4025C57.8698 26.3876 57.8055 26.3802 57.7411 26.3805C58.1435 26.2021 58.7707 26.3752 59.1655 26.1816C59.2194 26.2415 59.5512 26.2423 59.7896 26.2104C59.7888 26.1716 59.7903 26.1328 59.7942 26.0942C59.7255 26.1291 59.6544 26.159 59.5816 26.1838C59.4942 26.1762 59.4009 25.9295 59.4069 25.8619C59.3621 25.8467 59.3416 25.7442 59.3356 25.7032C59.3841 25.0487 60.0272 25.3418 60.3537 25.114C60.5397 25.0647 60.558 25.029 60.7819 25.0579C60.8889 25.0808 61.0001 25.0753 61.1042 25.0418C61.2084 25.0084 61.302 24.9482 61.3757 24.8673C61.3461 24.828 61.3206 24.7858 61.2998 24.7412C61.2998 24.7276 61.2998 24.701 61.2899 24.6926C61.2922 24.6768 61.2922 24.6607 61.2899 24.6448C61.321 24.6539 61.4288 24.6638 61.4729 24.6714C61.5609 24.6835 62.0317 24.8088 62.1995 24.7473C62.3711 24.6661 62.3627 24.4717 62.6338 24.496C62.6391 24.7086 62.6118 24.7238 62.901 24.7762C62.4804 24.7374 61.8381 24.9075 61.8274 25.2568C61.8274 25.3783 62.0803 25.6934 62.1835 25.7123C62.3012 25.7123 62.671 25.3631 63.0294 25.3061C63.1053 25.3107 64.3004 25.0784 64.33 24.9546C64.3209 24.7883 63.8866 24.6911 63.7696 24.6737C63.2587 24.5841 62.4713 24.0245 62.4447 23.6312C62.3208 23.5879 62.1939 23.5537 62.0651 23.5287C62.1714 23.4209 62.7985 23.4566 62.8152 23.1362C62.8016 22.8659 62.2762 22.815 61.8905 22.7565C61.0917 22.6449 60.7409 23.0451 60.1806 23.0451C60.4357 22.6594 60.7994 22.8393 61.2086 22.5736C61.4721 22.383 61.2724 22.2334 61.6642 22.1856C62.3475 22.1142 62.7105 22.2797 63.3938 22.3959C64.2776 22.5477 64.9283 22.9706 65.4377 22.5014C65.6754 22.2805 66.9145 22.5606 66.9145 22.2046C66.9008 21.9403 66.7786 21.8044 66.6108 21.6161C66.4969 21.5842 66.6647 21.5296 66.4741 21.4233C66.4787 21.3815 66.462 21.3337 66.4665 21.2919C65.9538 21.3603 65.4345 21.3618 64.9214 21.2965C64.8593 21.2881 64.8009 21.2617 64.7536 21.2206C65.0824 21.1651 65.9684 21.2783 66.0808 21.0847C66.0869 21.0323 65.954 20.9844 65.935 20.9328C65.5296 20.8797 64.7088 20.5995 64.6807 20.2199C64.6747 20.2145 64.6807 20.1978 64.6807 20.188C64.3117 20.112 64.0878 19.9222 63.8676 19.7704C63.9435 19.7453 64.1113 19.7567 64.1113 19.6269C64.1113 19.5244 63.9594 19.3991 63.9807 19.3072C63.8167 19.2381 63.27 18.9344 63.409 18.7568C63.5684 18.5426 62.8775 18.3665 62.7955 18.0734C62.6905 18.023 62.5923 17.9594 62.5032 17.8844C62.3931 17.9178 62.0788 17.9603 62.1236 18.0977C62.2078 18.3346 61.9117 18.3255 61.6004 18.3969C61.3894 18.4493 61.2208 18.5935 61.0371 18.5594C60.728 18.5054 60.5003 18.1349 60.2899 18.0871C60.0007 18.0301 60.1419 17.5693 60.0941 17.3278C59.9961 17.0378 59.107 17.0765 59.0729 16.7075C58.5816 16.5883 58.6522 16.4144 58.1443 16.3385C58.0387 16.318 57.8869 16.2998 57.7563 16.2831C57.24 16.2072 56.9363 15.9969 56.4208 15.9293C56.1512 15.8944 55.8847 15.9293 55.8756 16.1107C55.8809 16.214 56.5126 16.4304 55.9159 16.5739C55.6759 16.6286 56.2309 16.9399 56.2644 17.0841C56.3198 17.4258 55.8088 17.4243 55.5605 17.4425C55.7982 17.6915 56.2735 17.8069 56.4815 18.0286C56.6447 18.2253 56.5217 18.5016 56.505 18.8395C56.4732 19.0331 55.3722 19.3968 54.9865 19.4128C55.6372 19.696 55.3487 20.2616 55.5939 20.5061C55.5302 20.563 55.3084 20.7916 55.2804 20.9047C55.045 20.9001 54.8445 20.9389 54.6654 20.8288C54.2045 20.5365 53.547 20.0407 53.5515 19.7294C53.5667 19.3953 53.6062 19.122 53.0823 18.8866C52.692 18.7719 52.301 18.6839 51.9085 18.5928C51.181 18.2723 50.4273 18.015 49.6558 17.8236C49.5396 17.7864 49.1007 17.5883 48.8358 17.5647C48.551 17.5549 48.4083 17.6991 48.1289 17.6763C48.1395 17.4334 47.9246 16.8844 47.5154 16.8411C47.3233 16.8374 47.2307 16.9087 47.0424 16.9171C47.1183 16.8115 47.0553 16.7508 47.0978 16.4775C47.1479 16.0713 47.438 15.7379 47.8935 15.5398C48.056 15.4396 48.4075 15.1313 48.5503 15.1062C48.8639 15.0744 49.1357 15.2938 49.1676 15.066C49.1767 14.9104 48.4933 14.8792 48.2451 14.7942C48.3779 14.8268 47.8518 14.5968 49.324 14.9233C49.7127 14.9802 49.4933 14.7395 49.7127 14.7524C49.8457 14.7534 49.9785 14.7621 50.1106 14.7782C50.5555 14.8094 50.8 14.6021 51.0976 14.5163C51.0976 14.4685 51.1097 14.432 51.1097 14.3827C50.5023 14.2581 49.9018 14.2673 49.6451 13.9894C49.7531 13.9889 49.8609 13.996 49.9678 14.0106C50.1956 14.0797 50.4074 14.2331 50.7567 14.2673C51.0467 14.2824 51.6929 14.2832 51.7179 14.183C51.7247 14.0129 51.6936 13.9408 51.661 13.9096C52.0125 13.9575 52.1431 14.1192 52.3823 14.1503C52.5812 14.1503 52.7702 14.1936 52.9798 14.208C52.9039 14.1572 52.9722 14.003 53.1962 14.1868C53.3177 14.2862 54.2204 14 54.2485 13.8899C54.2402 13.8049 53.8567 13.6925 53.8514 13.634C53.8613 13.5672 53.613 13.4313 54.184 13.3524C54.2599 13.2817 54.1931 13.2977 54.1931 13.1458C54.0184 13.1338 53.8488 13.0818 53.6973 12.994C54.1225 13.0441 54.5097 13.0927 54.7489 13.1276C54.7375 13.1853 54.6608 13.2711 54.8817 13.3038C55.2082 13.3493 55.477 13.1322 55.6995 13.1519C55.8961 13.2035 56.808 13.6226 56.9659 13.713C56.8778 13.7062 56.5658 13.6614 56.5536 13.7426C56.5688 13.7472 56.6341 13.8284 56.6903 13.8466C56.9181 13.8656 57.0191 13.8094 57.24 13.8466C57.5938 13.9157 58.6727 14.4191 58.697 14.6104C58.697 14.7228 58.3478 14.7995 58.1883 14.8504C58.0721 14.8549 57.7669 14.7646 57.7586 14.8906C57.7548 14.9536 58.0008 15.0576 58.0691 15.0941C57.8093 15.1055 57.5491 15.0994 57.2901 15.0759C57.0244 15.0341 56.7951 14.9954 56.5392 14.9658C56.297 14.9164 55.8445 14.9878 55.8308 15.0683C55.8384 15.1806 56.3722 15.3462 56.584 15.3841C56.7958 15.4221 56.9021 15.3264 57.1155 15.3469C57.2446 15.3689 57.2339 15.416 57.4108 15.4449C57.5307 15.4584 57.6519 15.4381 57.7609 15.3864C58.2673 15.5906 58.5414 15.7721 59.1139 15.9839C58.836 16.1844 59.8465 16.3598 60.271 16.5291C60.7113 16.7189 61.0112 16.7478 61.5169 16.9399C61.5556 16.9626 61.6126 17.0545 61.6885 17.0674C61.747 17.078 61.8533 17.0629 61.8533 17.0082C61.8161 16.788 60.8989 16.4577 60.6012 16.2337C60.6839 16.2606 60.7696 16.2767 60.8564 16.2816C61.0431 16.422 62.1106 16.8191 62.425 16.8951C62.491 16.8153 62.6528 16.7257 62.6528 16.6437C62.6528 16.5617 62.3491 16.4661 62.3491 16.4091C62.3421 16.3588 62.3393 16.308 62.3407 16.2573C62.2458 16.2449 62.1519 16.2256 62.0598 16.1996C62.0203 16.0652 61.9163 16.1236 61.5913 16.0151C61.485 15.9581 61.2512 15.763 61.2117 15.6628C61.1464 15.6491 61.056 15.6354 60.9945 15.6195C60.9989 15.583 60.9971 15.5461 60.9892 15.5102C61.0682 15.5436 61.1533 15.5602 61.239 15.5588C61.2345 15.5284 61.239 15.5041 61.2345 15.4737C61.1203 15.4609 61.0082 15.4333 60.9011 15.3917C61.0093 15.3719 61.1198 15.3675 61.2291 15.3788C62.0438 15.5504 62.0772 16.0295 62.8995 16.2193C63.0848 16.2512 63.0962 16.1502 63.0962 16.0614C63.4105 16.1221 63.4431 16.0789 63.4431 16.0546C63.4357 16.024 63.4331 15.9925 63.4356 15.9612C63.6352 16.0075 63.9017 16.0568 63.9017 15.9521C63.8972 15.8222 63.7696 15.7569 63.4583 15.6863C63.3582 15.6634 63.261 15.6296 63.1683 15.5853C63.024 15.3986 62.9679 15.5094 62.6026 15.4221C62.3688 15.3644 62.2754 15.2391 62.2276 15.0979C61.8897 15.0121 61.4524 14.8511 61.3985 14.6795C61.1707 14.6606 61.0948 14.5869 60.9361 14.5277C61.0879 14.4267 61.2102 14.4799 61.4676 14.4799C61.3923 14.4282 61.3085 14.3901 61.22 14.3675C61.0393 14.3295 60.8989 14.284 60.7273 14.2536C60.8541 14.1913 61.056 14.2422 61.2937 14.2764C61.1654 14.1663 61.0598 14.0638 60.826 14.019C60.7359 13.9892 60.6426 13.9704 60.5481 13.9628C60.5529 13.925 60.5508 13.8867 60.542 13.8497C60.0865 13.716 59.8306 13.587 59.3796 13.4404C59.4274 13.3045 59.0053 13.243 58.8276 13.2073C58.7046 13.1982 58.5566 13.1519 58.4108 13.1314C57.8527 13.0281 57.7457 12.7814 57.366 12.6333C57.1383 12.521 56.4344 12.3987 56.1041 12.3441C55.7959 12.2924 55.7071 12.4572 55.4208 12.4094C55.2887 12.398 55.2219 12.3205 55.029 12.2932C54.8711 12.2621 54.7754 12.3137 54.6881 12.3137C54.6122 12.2985 54.6942 12.2173 54.6881 12.1861C54.6988 12.0343 54.4717 11.7913 54.0207 11.7412C53.3374 11.6509 52.2076 11.6266 52.1765 11.8619C52.1689 11.9432 52.3413 11.9705 52.3344 12.0533C52.3261 12.117 52.0854 12.1573 51.9806 12.1497C51.7673 12.1299 51.8113 12.0874 51.8174 12.0229C51.8095 12.0044 51.8062 11.9842 51.8076 11.9642C51.8091 11.9441 51.8153 11.9247 51.8257 11.9075C51.7498 11.9014 51.6944 11.8794 51.6944 11.8316C51.7126 11.6326 52.2699 11.6797 52.4536 11.5726L51.8956 11.4557C51.4293 11.4101 50.9586 11.4505 50.5069 11.5749C50.4492 11.6083 50.5069 11.7161 50.3687 11.7435C50.0977 11.7807 50.0096 11.8194 49.9936 12.0085C49.9936 12.0844 50.2328 12.2028 50.2328 12.2028C50.2328 12.2028 51.0118 12.2932 51.1788 12.3433C51.1788 12.3782 51.1705 12.3949 51.1705 12.4291C50.9167 12.3805 50.6596 12.3508 50.4014 12.3403C50.434 12.4511 50.6739 12.4769 50.7643 12.568C51.0422 12.6037 51.3216 12.6022 51.5995 12.6386C51.758 12.7298 51.9316 12.792 52.112 12.8224L52.1833 12.8285C52.1727 12.9522 52.4445 12.9803 52.4309 13.0722C52.4172 13.1641 52.0239 13.1177 51.9237 13.1937C51.7786 13.3129 51.8159 13.429 51.544 13.5733C51.1173 13.8011 50.7909 13.5475 50.7909 13.4457C50.7992 13.3212 51.0892 13.3918 51.112 13.2582C51.0961 13.1929 50.6291 12.9302 50.4841 12.9211C49.9663 12.8846 50.2943 13.2597 49.7385 13.2316C49.7385 13.0676 49.7385 12.9879 49.368 12.8846C49.4255 12.8461 49.4884 12.8164 49.5548 12.7966C49.2792 12.7108 48.8935 12.7518 48.6907 12.6288C48.7993 12.609 49.1402 12.5604 49.1531 12.4572C49.1653 12.3053 48.6695 12.2886 48.6619 12.1702C48.6824 11.9796 48.4614 11.8429 48.0393 11.7716C48.1813 11.7291 48.2671 11.7063 48.3225 11.6243C48.2595 11.6243 48.1638 11.6144 48.1 11.6144C48.2215 11.4739 48.2048 11.5749 48.5844 11.5924C48.9318 11.6181 49.2797 11.5501 49.592 11.3957C49.592 11.3957 49.8957 11.3312 49.9094 11.3198C49.9094 11.2856 49.9192 11.275 49.9192 11.2393C49.2989 11.2097 48.8563 11.1087 48.2648 11.0769C47.9133 11.0533 47.7941 11.1437 47.7941 11.1528C47.7941 11.1771 47.7538 11.2135 47.7849 11.2135C47.6726 11.2211 47.52 11.2044 47.3962 11.1999C47.3787 11.2431 47.3962 11.2606 47.3787 11.3039C47.4835 11.4299 47.3423 11.5119 47.6065 11.6136C47.5974 11.6425 47.5898 11.6767 47.5777 11.7306C47.3453 11.7389 47.4418 11.8019 47.4494 11.8908C47.2368 11.9075 46.9634 11.8726 46.9482 11.9933C46.9323 12.0882 47.0728 12.0988 47.0545 12.1922C47.0363 12.2856 46.8139 12.2461 46.8002 12.3676C46.7622 12.6409 47.9391 12.4959 47.9315 12.7837C47.8796 12.8685 47.8209 12.949 47.7561 13.0244C47.8639 13.0168 47.9839 12.9803 48.1357 12.9568C48.305 13.3076 47.2034 13.0957 47.1168 13.5072C46.5208 13.5634 47.0189 13.3151 46.8959 13.2035C46.8495 13.1603 46.3985 13.0919 46.1214 13.0843C45.8078 13.0843 45.6712 13.1603 45.6393 13.3432C45.328 13.3243 44.8527 13.1527 43.8581 13.1618C42.9151 13.1716 42.2272 13.0411 42.0753 12.7374C41.9326 12.7487 41.6638 12.7692 41.4034 12.8049C41.6031 12.7487 41.5416 12.6796 41.8172 12.6834C42.3001 12.6546 42.4777 12.8664 43.1398 12.8566C43.5612 12.8641 43.9446 12.8421 44.1268 12.7313C44.0706 12.7032 43.9894 12.7024 43.975 12.6371C43.918 12.6493 43.7237 12.6485 43.7328 12.5855C43.7419 12.5225 43.8338 12.5316 43.9659 12.5172H43.9712C44.2825 12.5172 44.3303 12.5415 44.6545 12.4648C44.3341 12.3547 42.9993 12.2499 43.0236 12.0267C43.057 11.8581 42.6615 11.7321 42.707 11.5066C42.7214 11.4367 43.0821 11.3942 43.1155 11.297C43.1481 11.1801 42.8763 11.1695 42.584 11.1831C42.3259 11.1589 42.0996 11.2264 42.0723 11.3031C42.0996 11.3031 42.0654 11.335 42.0723 11.3616C41.7914 11.417 41.9098 11.3616 41.622 11.3813C41.5051 11.3813 41.329 11.4109 41.313 11.4732C41.2842 11.5392 41.4702 11.8012 41.5674 11.8779C41.4974 11.9106 41.422 11.9301 41.3449 11.9356C41.0321 11.9356 41.2052 11.7928 41.1331 11.7222C41.0571 11.6334 40.8719 11.5886 40.6555 11.5818C40.5395 11.5815 40.4236 11.5889 40.3085 11.6038C40.3457 11.6463 40.3465 11.6319 40.3556 11.7055C40.1956 11.741 40.0336 11.7664 39.8704 11.7814C39.7945 11.6706 39.6685 11.6152 39.2258 11.6584C38.9866 11.682 38.8523 11.7655 38.7148 11.8103C38.6617 11.7556 38.7429 11.6076 38.525 11.6288C37.9639 11.6767 36.5813 12.0457 36.453 12.3471C36.4431 12.3866 36.6876 12.423 36.8516 12.4109C37.0226 12.3729 37.1973 12.3546 37.3725 12.3562C37.1978 12.4374 36.7848 12.4131 36.7309 12.5536C36.677 12.6941 37.4977 12.5749 37.8538 12.5384C38.115 12.5172 38.3921 12.4876 38.67 12.4625C38.795 12.458 38.9199 12.4693 39.0421 12.4959C38.8507 12.5248 38.7619 12.5263 38.522 12.5483C37.8728 12.6121 37.4036 12.6842 36.9913 12.8353C37.1828 12.9573 37.4101 13.0109 37.6359 12.9871C37.8493 12.9583 38.3261 12.9036 38.4787 12.9461C38.6594 12.9902 38.4362 13.1071 38.7148 13.0881C39.1825 13.054 39.6518 13.0122 40.1529 13.0001C40.4308 12.8991 40.7231 12.9044 41.0541 12.8672C40.878 12.9059 40.7451 12.9545 40.7223 13.019C40.6995 13.0836 40.7755 13.1101 40.9106 13.095C41.1764 13.095 41.6319 12.997 41.8475 12.9325C41.8475 13.2096 41.0693 13.0084 40.985 13.2855C40.9622 13.3486 41.1027 13.527 41.0268 13.527C40.673 13.527 40.6859 13.3478 40.4103 13.2886C40.3343 13.2734 40.2539 13.2521 40.1779 13.2445C39.8173 13.2612 39.4832 13.2916 39.1339 13.3098C38.7976 13.3098 38.5949 13.4123 38.2304 13.4488C37.5926 13.5186 37.6344 13.407 37.642 13.3797C37.6693 13.2969 38.134 13.2855 38.2494 13.2392C37.8872 12.9606 37.9632 12.9909 37.0634 13.1352C36.0961 13.2666 35.5396 12.9773 34.6475 13.1215C34.3696 13.1587 34.4812 13.2802 34.2481 13.3379C34.0963 13.3531 34.0135 13.2772 33.9877 13.2013C33.9581 13.2111 33.9323 13.221 33.9072 13.2316C32.1513 14.3447 30.511 15.6304 29.0107 17.0697L30.8261 20.6792C30.8767 20.6826 30.9274 20.6826 30.978 20.6792C31.003 20.8728 31.5414 20.6914 31.6211 20.9487C31.6477 21.0505 32.0091 21.0292 32.1526 21.1302C32.2025 21.1546 32.2557 21.1718 32.3105 21.1811C32.3469 21.2866 32.4836 21.2995 32.4623 21.4051C32.4342 21.4863 32.2756 21.6237 32.1814 21.6996C32.1343 21.5949 32.0075 21.5387 31.7691 21.5516C31.7152 21.5736 31.5414 21.585 31.5224 21.6412C31.4905 21.869 31.8261 21.9289 31.7881 22.1666C31.7744 22.2228 31.7441 22.3131 31.7038 22.4255L35.6095 30.2003L35.7029 30.3871L36.5206 32.0256L36.5821 32.0947C36.6261 32.0529 36.6231 32.0643 36.7856 32.1053C36.7476 32.5366 37.2905 32.5927 37.4469 32.9253C37.5069 33.1288 37.3603 33.2829 37.5069 33.4477C37.6587 33.6246 37.9624 33.7248 38.1424 33.9184C38.5744 34.4142 38.8888 35.0014 39.0618 35.6359C39.0778 35.733 39.2289 35.8241 39.2137 36.0671C39.2137 36.2744 39.0026 36.3579 38.9753 36.5614C38.9753 36.6821 39.0709 36.9327 39.2326 36.941C39.3086 37.1908 39.8552 37.3609 40.0747 37.5947C40.1255 37.6327 40.2265 37.7003 40.2774 37.739C40.5181 37.8681 40.6502 37.8415 40.9076 37.9736C41.1452 38.1255 41.2174 38.3449 41.4816 38.4436C41.7094 38.5195 41.846 38.4231 42.0525 38.5264C42.2712 38.6448 42.8703 39.1193 43.1223 39.152C43.2408 39.1618 43.4367 39.1421 43.5779 39.2279C43.6364 39.2575 43.8057 39.4101 43.9659 39.4253C44.3129 39.4504 44.3971 39.1004 44.7601 39.1216C44.9157 39.1496 45.0629 39.2127 45.1906 39.3061L45.3128 39.316C45.8374 39.6129 45.9202 40.3789 46.5382 40.7214C46.9331 40.9416 47.2064 40.8732 47.5921 41.0699C47.8442 41.2096 48.034 41.4077 48.4189 41.4548C48.5229 41.4586 48.6664 41.3903 48.813 41.3948C48.8529 41.403 48.8937 41.4064 48.9345 41.4047C49.0256 41.8648 49.349 42.044 49.6527 42.3766C49.7203 42.4525 49.8456 42.5375 49.8904 42.7106C49.9663 43.0143 49.7461 43.2322 50.0346 43.4464C50.1024 43.4479 50.1701 43.4532 50.2374 43.4623C50.2251 43.4362 50.2198 43.4073 50.2222 43.3785C50.2246 43.3497 50.2346 43.322 50.251 43.2983C50.2677 43.2983 50.9139 43.7318 50.9807 43.8556C51.0285 43.9672 51.0255 44.1775 51.3117 44.2709C51.3041 44.2975 51.3732 44.3878 51.4036 44.3878C51.5068 44.3954 51.866 44.3119 52.011 44.4546C52.1628 44.6224 52.3291 44.9717 52.6541 45.0021C52.7725 45.0195 52.9229 44.9307 52.9806 44.7492C52.9525 44.7325 52.8333 44.627 52.8333 44.5716C52.8545 44.4956 53.4285 44.1426 53.5804 44.1509C53.7914 44.1692 53.6259 44.5708 53.8438 44.6961C53.8081 44.7462 53.7163 44.8153 53.7057 44.8684C53.7057 44.9102 53.8901 44.9998 53.9198 45.0286C53.9311 45.0286 53.9554 45.0127 53.9684 45.0127C53.9514 45.0493 53.9372 45.0871 53.9258 45.1258C53.9069 45.4607 54.25 45.4136 54.2295 45.8092C54.2083 45.9906 54.1111 46.0559 54.0853 46.2723C54.0853 46.3809 54.1779 46.5274 54.168 46.6793C54.163 46.7096 54.1602 46.7404 54.1597 46.7711C54.1369 46.8053 54.0838 46.8721 54.0671 46.9093C54.0633 46.9511 54.1734 47.0771 54.2493 47.1029C54.0709 47.5828 53.5895 47.4067 53.3215 47.7977C53.1377 48.0801 52.9601 48.5319 52.4104 48.5068C52.4164 49.3169 52.1066 49.6237 52.0641 50.0299C52.0406 50.2835 52.0429 50.613 52.3261 50.6479C52.4293 50.6532 52.4491 50.5667 52.6222 50.6851C52.5053 50.9509 52.1598 50.9987 51.9487 51.2546C51.81 51.3909 51.7167 51.5667 51.6815 51.758C51.6549 52.0533 51.8971 52.4337 52.0953 52.6319C52.153 52.6827 52.323 52.6751 52.3762 52.7837C52.4126 52.8817 52.4407 53.1353 52.5645 53.2734C52.6169 53.3038 52.7543 53.2985 52.8074 53.4071C52.9458 53.7124 53.0573 54.0292 53.1408 54.3539C53.2387 54.7145 53.3063 55.0964 53.4186 55.4928C53.4862 55.7471 53.7398 55.8724 53.714 56.1267C53.6981 56.3348 53.5986 56.4927 53.7337 56.6263C54.0504 56.9521 54.2743 57.1624 54.7967 57.3241C55.0495 57.4076 55.1513 57.4501 55.3608 57.6597C55.5469 57.8282 55.7556 57.8237 56.0206 57.9285C56.3539 58.1084 56.5901 58.3013 56.7154 58.6809C56.728 59.078 56.7171 59.4756 56.6827 59.8714C56.6417 60.0939 56.423 60.4788 56.3896 60.6914C56.3479 60.8903 56.3228 61.0855 56.2886 61.3132C56.2234 61.4484 56.0981 61.702 56.0836 61.7969C56.0836 61.8379 56.0692 61.8804 56.0632 61.9199C55.9758 62.383 55.6607 62.6511 55.5696 63.1651C55.5408 63.3769 55.3084 63.5569 55.373 63.7846C55.3198 64.1134 55.2796 64.4171 55.2211 64.7208C55.0632 65.007 55.0184 65.2075 54.8521 65.4869C54.8172 65.5309 54.739 65.5294 54.6805 65.5689C54.5894 65.6448 54.5165 65.8012 54.4277 65.8946C54.2447 66.0419 53.9592 66.3069 53.9046 66.5696C53.901 66.58 53.8982 66.5907 53.8962 66.6015L55.6326 70.0591C55.7473 69.9711 55.7397 69.8974 55.8711 69.8238C56.1368 69.7205 56.5179 69.6613 56.5848 69.4624C56.647 69.2171 55.931 69.3978 56.007 69.0865C56.0616 68.962 56.2924 68.8291 56.565 68.7881C56.6668 68.7646 57.1162 68.9324 57.1922 68.8367C57.3562 68.609 57.4063 68.4526 57.7442 68.2559C57.6682 68.2514 57.587 68.2278 57.612 68.1268C57.7707 68.1063 57.7981 68.1967 57.9985 68.1823C58.0266 68.1724 58.1838 68.1284 58.1944 68.0486C58.2217 67.9864 58.1428 68.0145 58.082 67.9644C58.0033 67.9981 57.9221 68.0255 57.8391 68.0463C57.7069 68.0608 57.5832 67.8292 57.6174 67.6811C57.6263 67.6383 57.6518 67.6007 57.6884 67.5765C57.7249 67.5523 57.7695 67.5435 57.8125 67.5521C58.142 67.5202 58.1549 67.6576 58.4897 67.6409C58.5922 67.6265 58.8504 67.5498 58.8906 67.4944C58.8938 67.4597 58.9041 67.4261 58.921 67.3957C59.0729 67.2438 58.8997 67.1155 59.1488 66.972C59.331 66.8649 59.804 66.9409 60.0736 66.8649C60.4798 66.745 60.7645 66.7579 61.1031 66.5612C61.2793 66.4314 61.4159 66.3752 61.6065 66.2036C61.7136 66.1277 61.7318 66.0662 61.7743 65.9144C61.8312 65.7784 61.5716 65.8324 61.5549 65.7094C61.5374 65.5393 61.5655 65.4725 61.4714 65.3874C61.4212 65.3533 61.2147 65.335 61.2436 65.2227C61.2542 65.1839 61.3415 65.1551 61.3856 65.1551C61.6384 65.1316 61.7933 65.25 62.0036 65.2265C62.1069 65.2181 62.4068 65.2925 62.6649 65.272C63.3718 65.1877 63.658 64.6388 64.0673 64.2455C64.4249 63.9243 64.8318 63.6464 65.2062 63.3017C65.3861 63.1241 65.232 63.3921 65.3793 63.2167C65.38 63.2192 65.38 63.2218 65.3793 63.2243C65.5871 62.9608 65.8451 62.7411 66.1385 62.5782C66.2327 62.2623 66.304 61.9169 66.3913 61.5668C66.4407 61.3277 66.339 61.5987 66.5926 61.415C66.7353 61.2996 66.9319 61.2889 67.0937 61.0946C67.4642 60.6998 67.7504 60.8296 68.1969 60.4834C68.2424 60.4145 68.3056 60.3592 68.3799 60.3232C68.5993 60.2062 68.8096 60.1911 69.0814 60.147C69.3213 60.125 69.6478 59.8965 69.7769 59.7226C69.8194 59.6778 69.8437 59.5221 69.9287 59.4288C70.2013 59.141 70.3023 59.0058 70.5961 58.6695C70.6706 58.5219 70.7355 58.3698 70.7905 58.2139C70.811 58.1084 70.9659 57.9566 71.0479 57.8806C71.076 57.8465 71.1504 57.7774 71.1572 57.709C71.2134 57.539 71.4905 56.8048 71.5505 56.5588C71.634 56.2254 71.4404 56.1146 71.6872 55.8618C71.8504 55.7099 72.0008 55.6514 72.186 55.4328C72.3083 55.2908 72.3591 55.2551 72.4677 55.1169C72.9681 54.4731 73.6187 53.8634 73.8731 52.7739C73.9414 52.4565 73.9346 52.1611 73.7068 52.0981ZM52.8393 25.4709C52.6442 25.4443 52.5895 25.2203 52.5979 25.0579C52.6396 25.1186 52.7854 25.2591 52.872 25.2704C52.9995 25.2856 53.0922 25.1907 53.1514 25.1414C53.3389 25.0313 53.6183 25.0472 53.8864 25.0859C54.1544 25.1247 54.266 25.2234 54.3419 25.1953C54.3844 25.1816 54.4474 25.1642 54.5089 25.1467C54.0633 25.2834 53.3002 25.5005 52.8393 25.4709ZM54.7071 24.581C55.1346 24.5286 56.0115 24.4436 56.4959 24.4823C56.4466 25.0518 55.2705 24.786 54.717 24.7207C54.6456 24.7101 54.6266 24.7291 54.4892 24.7116C54.5102 24.7457 54.5293 24.7809 54.5461 24.8172C54.5219 24.7754 54.452 24.7215 54.4528 24.6782C54.4528 24.6152 54.6616 24.5871 54.7071 24.581ZM49.4735 21.6199L49.4682 21.6146C49.7241 21.5713 49.7507 21.6473 49.9648 21.5782C50.1637 21.5159 50.1014 21.2912 50.2943 21.2972C50.5168 21.3314 50.6603 21.6009 50.718 21.6518C50.7544 21.607 50.7529 21.4757 50.7552 21.4506C50.7931 21.4506 50.866 21.459 50.907 21.462C50.9943 21.4734 51.7703 22.0504 51.806 22.0975C51.9054 22.2904 51.7809 22.4096 51.9252 22.5531C52.342 22.9236 52.9122 22.9327 53.3852 23.1992C53.548 23.2236 53.712 23.2393 53.8765 23.2463C54.0936 23.3981 54.3647 23.5651 54.3556 23.7937C54.3473 23.8403 54.3225 23.8823 54.2859 23.9122C54.2493 23.9422 54.2032 23.958 54.1559 23.9569C53.9281 23.9524 53.7064 23.6904 53.6411 23.6472C53.5508 23.8689 53.3321 24.5841 53.0618 24.5719C52.8697 24.4337 52.8834 24.3282 52.8272 24.0731C52.6336 24.0974 52.6753 24.1604 52.4384 24.149C52.5144 23.9379 52.6723 23.8127 52.6882 23.6046C52.6974 23.4285 52.0186 23.0891 51.866 23.0769C51.5516 23.0557 51.8599 23.427 51.1469 23.4156C50.9374 23.3974 50.8979 23.8559 50.8865 24.0587C50.8736 24.1915 50.8607 24.3882 50.8455 24.5499C50.8349 24.7671 50.7005 25.1976 50.4074 25.1839C50.1956 25.1695 49.9815 25.0153 49.9921 24.8384C50.0255 24.4466 50.2457 23.679 50.5995 23.3624C50.412 23.3518 50.3277 23.4566 50.1235 23.5386C50.1994 23.2349 50.9807 22.8856 51.4021 22.916C51.5159 22.9296 51.9616 23.0413 52.2562 22.9919C52.2651 22.9326 52.2694 22.8727 52.2691 22.8127C51.8667 22.7649 51.6678 22.5758 51.2062 22.525C50.9974 22.5052 50.9139 22.6457 50.6641 22.6305C50.5623 22.6221 50.3604 22.5159 50.355 22.4263C50.2586 22.4217 50.1022 22.3997 49.9754 22.3959C50.0453 22.3048 50.2032 22.2509 50.2169 22.0436C49.9352 22.0778 49.5692 22.3139 49.3551 22.3055C49.2253 22.2911 49.1471 22.4764 48.8236 22.4627C48.709 22.4498 48.6224 22.4384 48.5541 22.2934C48.4344 22.3076 48.3165 22.3346 48.2025 22.3739C48.1266 22.3648 47.9915 22.3587 47.9186 22.3549C48.4106 21.9555 48.9314 21.8409 49.4735 21.6199ZM56.3372 14.1268C56.3372 14.224 56.5058 14.3136 56.7685 14.3462C56.9841 14.3887 57.3994 14.3774 57.407 14.2862C57.3941 14.0281 56.3676 13.8383 56.3372 14.1268ZM81.8635 36.6548H81.8567L81.8468 36.6897C81.8147 36.8282 81.7636 36.9615 81.695 37.086C81.594 37.1794 81.4186 37.2948 81.3154 37.5416C81.1559 38.0361 81.0291 38.5406 80.9357 39.0518C80.8924 39.2628 80.7338 39.4154 80.7079 39.726C80.7079 40.3144 80.818 40.8064 80.7649 41.4723C80.7391 41.8474 80.5553 42.5413 80.3853 42.7076C80.4073 42.9187 80.5029 43.2102 80.4946 43.4213C80.4794 43.5473 80.4946 43.6688 80.4779 43.8966H80.4566C80.4931 44.0006 80.49 44.012 80.5212 44.1024C80.6003 44.3771 80.6951 44.6471 80.8051 44.911C80.9099 45.1911 80.8955 45.532 80.9494 45.9291C80.9707 46.1569 81.0458 46.2328 81.124 46.3505C81.1817 46.4416 81.1407 46.5282 81.1999 46.7241C81.7002 44.4912 81.9654 42.2122 81.9911 39.9242C82.0022 38.8344 81.9597 37.7446 81.8635 36.6548Z" fill="url(#paint0_linear_296_1147)"/>
<path d="M64.5646 11.622C66.2163 12.4782 67.7912 13.475 69.272 14.6013C69.2164 14.7048 69.1423 14.7971 69.0533 14.8739C68.9234 14.9862 68.7807 15.0828 68.6282 15.1616C67.6684 14.3619 66.6646 13.6167 65.6215 12.9294C64.6068 12.2597 63.5557 11.647 62.4728 11.0943C62.5427 11.0555 62.6099 11.0121 62.674 10.9644C62.7292 10.9233 62.7801 10.8768 62.8259 10.8255L62.6133 10.7359C62.5817 10.7666 62.5476 10.7948 62.5116 10.8202C62.4243 10.8787 62.3321 10.9296 62.2359 10.972C61.219 10.4624 60.1761 10.0063 59.1116 9.60537H59.1048C58.8413 9.50591 58.5733 9.411 58.3113 9.31837C57.464 9.10679 56.6035 8.92963 55.7299 8.78689C57.8752 9.33967 59.958 10.1119 61.9451 11.0912C61.7477 11.1581 61.5473 11.215 61.3438 11.2621C61.0614 11.3281 60.7417 11.3874 60.3894 11.439C59.5493 10.885 58.6792 10.378 57.7829 9.92047C56.9672 9.50474 56.1298 9.13318 55.2743 8.80739L55.3404 8.79752H55.3449C55.4261 8.78461 55.5013 8.77095 55.5727 8.75652C54.9825 8.66389 54.3875 8.58797 53.7877 8.52874C53.9205 8.57126 54.0534 8.61378 54.1855 8.65858H54.1794C54.0739 8.66541 53.9653 8.66541 53.8552 8.66541C53.7596 8.61125 53.6639 8.55886 53.5682 8.50824C53.3663 8.48926 53.1628 8.47332 52.9608 8.45813L53.3746 8.66541L53.1605 8.6601C53.0201 8.6601 52.8735 8.65023 52.7224 8.64187C52.6792 8.56595 52.6351 8.50065 52.5911 8.43384L52.3177 8.41865C52.3633 8.48471 52.4081 8.55152 52.4521 8.62137L52.3003 8.6115C52.2152 8.60619 52.1249 8.5986 52.0292 8.591L51.7582 8.56747L51.6109 8.55304L51.7627 8.39511C51.6655 8.39511 51.5676 8.38904 51.4704 8.386C51.4287 8.43308 51.3861 8.48091 51.3436 8.53102C51.1953 8.51432 51.0503 8.49635 50.9086 8.47711L50.6967 8.4475L50.9154 8.37689C50.6162 8.37689 50.3161 8.37892 50.0149 8.38297C49.2556 8.39714 48.4997 8.4394 47.747 8.50976C47.2084 8.6444 46.6747 8.79626 46.1457 8.96532C45.1869 9.26981 44.2457 9.62747 43.3266 10.0366C42.9895 9.92806 42.6835 9.81721 42.4155 9.7056C42.3102 9.66257 42.2062 9.61626 42.1034 9.56665L41.78 9.66004C41.9258 9.74052 42.0748 9.81366 42.2272 9.87947C42.461 9.98272 42.7237 10.0845 43.0123 10.1832C42.0262 10.6362 41.0658 11.1432 40.1354 11.7017C39.1466 12.2955 38.191 12.9431 37.273 13.6416C36.7668 13.473 36.2705 13.2794 35.7841 13.0608C35.4917 12.9303 35.2084 12.7804 34.936 12.612L34.7128 12.7434C35.0011 12.9329 35.3037 13.0997 35.6178 13.2422C36.0837 13.4578 36.5601 13.6499 37.0452 13.8177C36.1994 14.4722 35.3736 15.1763 34.5678 15.93C33.7422 16.7029 32.9425 17.5265 32.1685 18.4006C31.8851 18.721 31.6095 19.0435 31.3417 19.3679C31.0957 19.6656 30.8573 19.9632 30.6265 20.2608L30.8254 20.6564C31.1377 20.7612 31.4667 20.8667 31.8124 20.973C32.2346 21.1011 32.6714 21.2276 33.1229 21.3526C33.6392 21.4928 34.1826 21.6315 34.753 21.7687C35.2997 21.9003 35.8598 22.0269 36.4333 22.1483C35.6034 23.6828 34.8532 25.2591 34.1859 26.8709C34.1494 26.959 34.1099 27.0478 34.0781 27.1359L34.2155 27.4108C34.2785 27.2544 34.3415 27.0979 34.4061 26.9431C35.0755 25.3245 35.8297 23.7423 36.6656 22.203C37.989 22.4832 39.3989 22.7444 40.8643 22.9835C42.332 23.2227 43.8619 23.4391 45.4351 23.6327C45.0509 25.2069 44.6885 26.8421 44.3478 28.5383C44.0061 30.2329 43.6903 31.9883 43.3987 33.7885C41.4338 33.5479 39.544 33.2776 37.7506 32.9837C37.4803 32.9387 37.212 32.8936 36.9458 32.8486L37.0749 33.1052L37.6959 33.2085C39.509 33.5053 41.4095 33.7779 43.3615 34.0171C43.2309 34.8305 43.1067 35.6444 42.9887 36.4589C42.8698 37.289 42.7554 38.1302 42.6455 38.9826C42.521 39.9575 42.4061 40.9289 42.3008 41.8967C42.2502 42.3426 42.2039 42.7875 42.1619 43.2314L42.3593 43.624C42.4135 43.0672 42.4712 42.5031 42.5324 41.9316C42.6362 40.9663 42.7511 39.9947 42.8771 39.0168C42.9854 38.1705 43.1001 37.328 43.2211 36.4892C43.34 35.6591 43.464 34.8459 43.5931 34.0497C44.6075 34.1732 45.6413 34.2881 46.6947 34.3944C47.748 34.5007 48.8158 34.5977 49.898 34.6852C50.9756 34.7733 52.0457 34.8507 53.1081 34.9176C54.1574 34.9829 55.1951 35.0375 56.2211 35.0816C56.2181 35.8914 56.2082 36.7122 56.1915 37.5438C56.1728 38.3876 56.1474 39.2395 56.1156 40.0995C56.0796 41.086 56.0346 42.0637 55.9804 43.0325C55.9273 43.9943 55.8653 44.9456 55.7944 45.8866C54.696 45.84 53.5824 45.7818 52.4536 45.7119C51.3249 45.6421 50.1787 45.5593 49.015 45.4637C47.8533 45.369 46.7099 45.264 45.5846 45.1486C44.709 45.059 43.8429 44.9638 42.9864 44.8631L43.1094 45.1076C43.9143 45.2012 44.7292 45.2898 45.5543 45.3733C46.6916 45.4892 47.8376 45.5945 48.9922 45.6892C50.1468 45.7838 51.2935 45.8666 52.4324 45.9374C53.5571 46.0083 54.6707 46.067 55.7731 46.1136C55.6372 47.8963 55.4694 49.6305 55.2811 51.3008C55.0868 52.9978 54.8666 54.6294 54.6229 56.1776C53.5781 56.1346 52.5151 56.0791 51.434 56.0113C50.4672 55.9521 49.4829 55.882 48.4812 55.801L48.6019 56.0409C49.5459 56.1153 50.4854 56.1824 51.4203 56.2421C52.4878 56.3084 53.5442 56.3633 54.5894 56.4069C54.3427 57.9542 54.0709 59.4234 53.7801 60.7901C53.4938 62.134 53.1879 63.386 52.869 64.5279L53.0292 64.846L53.0337 64.8309C54.6995 64.8977 56.3092 64.9296 57.8406 64.9273C59.372 64.925 60.8093 64.8893 62.1585 64.8217C61.5458 65.7532 60.8604 66.6347 60.1085 67.4579C59.3983 68.2357 58.6144 68.9429 57.7677 69.5694C57.032 69.6111 56.2545 69.6392 55.4436 69.6529L55.5636 69.8906C56.1968 69.8792 56.8088 69.8594 57.3949 69.8306C57.0238 70.0853 56.6396 70.3205 56.2439 70.5352C56.477 70.4934 56.7101 70.4486 56.9416 70.4015C57.2453 70.2178 57.5392 70.0222 57.8231 69.8146C58.5611 69.7721 59.2574 69.7182 59.9058 69.6468C60.3072 69.5233 60.7053 69.3915 61.1001 69.2513C60.8338 69.2912 60.5555 69.3284 60.2649 69.3629C59.6188 69.4388 58.9195 69.5026 58.1747 69.5504C58.9592 68.9417 59.6884 68.2648 60.3537 67.5277C61.1193 66.6798 61.8159 65.7721 62.4372 64.8134C63.5882 64.7504 64.6694 64.6615 65.667 64.556C66.5994 64.4543 67.4589 64.3282 68.2349 64.1916C67.3697 65.1577 66.4287 66.0531 65.421 66.8695C64.756 67.4084 64.0607 67.9088 63.3384 68.3682C63.7818 68.1713 64.2199 67.9648 64.6527 67.7487C65.0288 67.4753 65.3962 67.1906 65.7551 66.8945C66.7779 66.0486 67.7308 65.1216 68.6046 64.1225C69.2433 64.0011 69.8749 63.8452 70.4967 63.6555C70.707 63.591 70.915 63.5181 71.12 63.4391C71.3144 63.2711 71.5062 63.1015 71.6956 62.9304C71.4053 63.0755 71.1054 63.2006 70.7981 63.3047C70.1653 63.5159 69.5196 63.6863 68.865 63.815C68.987 63.6707 69.1077 63.5257 69.2272 63.3799C69.3867 63.1896 69.5443 62.9932 69.7002 62.7907C70.5332 61.7049 71.2854 60.5594 71.9507 59.3634C72.6282 58.1438 73.2208 56.8789 73.7243 55.5778C74.594 55.4195 75.4535 55.2093 76.2982 54.9483C76.8687 54.7754 77.4215 54.5484 77.9488 54.2703C77.797 54.5938 77.6426 54.9134 77.4857 55.2293C77.2974 55.6023 77.1007 55.9721 76.8957 56.3385C76.2503 57.4941 75.5282 58.6051 74.7341 59.6641C74.4724 60.0134 74.2026 60.356 73.9247 60.6921C74.9292 59.5807 75.8528 58.3988 76.6884 57.1555C76.8266 56.9232 76.9633 56.6886 77.0962 56.4509C77.3169 56.0546 77.5269 55.6577 77.7264 55.2604C77.9258 54.863 78.1151 54.4637 78.2943 54.0623C78.3899 53.9993 78.478 53.9347 78.5593 53.8702C78.5259 53.9385 78.4909 54.0091 78.4545 54.082C78.3694 54.2529 78.2821 54.4176 78.2062 54.5695C77.7851 55.3743 77.3318 56.1573 76.8464 56.9186C80.3401 51.6243 82.1357 45.3902 81.9934 39.0487C81.739 26.9757 74.6855 16.6392 64.5646 11.622ZM78.9032 26.4222C79.6722 28.0427 80.2982 29.7274 80.774 31.4569C80.7375 31.6799 80.6397 31.8883 80.4916 32.0589C80.3094 32.2708 80.0952 32.453 79.8568 32.5988C79.3844 30.8473 78.7705 29.1371 78.0209 27.4852C77.2631 25.8141 76.3727 24.2065 75.3582 22.6775C75.5669 22.5569 75.7599 22.411 75.933 22.2432C76.0544 22.1242 76.1545 21.9853 76.2291 21.8325C77.2478 23.2846 78.1423 24.8199 78.9032 26.4222ZM75.9588 39.669C75.8275 37.8671 75.5738 36.0762 75.1995 34.3086C76.1005 34.1522 76.9916 33.9435 77.8683 33.6838C78.5058 33.5004 79.1225 33.2515 79.7088 32.9412C80.61 36.4044 80.9366 39.992 80.6753 43.561C80.1871 43.8548 79.5455 44.1259 78.765 44.3718C77.8526 44.6505 76.9241 44.8736 75.9846 45.04C76.0987 43.2509 76.0901 41.4561 75.9588 39.6682V39.669ZM68.0746 40.1306C68.0094 38.4284 67.8681 36.7443 67.6571 35.0922C68.3505 35.0573 69.0232 35.016 69.6752 34.9684C70.3448 34.9178 70.9983 34.8609 71.6356 34.7976C72.2556 34.7348 72.8456 34.6652 73.4054 34.5888C73.9501 34.5144 74.4674 34.4352 74.9573 34.3511C75.3338 36.1177 75.5895 37.9079 75.7227 39.7092C75.8555 41.4989 75.8639 43.2955 75.7477 45.0863C74.6848 45.2769 73.4904 45.4401 72.1951 45.5745C70.8999 45.7089 69.4967 45.8144 68.001 45.8904L68.02 45.5996L68.0405 45.2366C68.1293 43.5207 68.1392 41.8162 68.0746 40.1299V40.1306ZM65.2115 24.5142C65.8022 24.4876 66.3762 24.4519 66.9304 24.4117C67.5037 24.3699 68.064 24.3213 68.6084 24.2667C69.0817 24.2161 69.5337 24.1632 69.9644 24.108C70.3825 24.0518 70.7814 23.9923 71.161 23.9296C72.016 25.531 72.7586 27.1899 73.3834 28.8944C74.0106 30.604 74.5207 32.3543 74.9103 34.1332C73.9042 34.3064 72.7957 34.4537 71.5756 34.5767C70.3555 34.6997 69.0344 34.7961 67.6274 34.8644C67.3875 33.0422 67.0626 31.2648 66.6594 29.5412H66.6632C66.2665 27.8416 65.782 26.1636 65.2115 24.5142ZM49.4948 11.505C49.2058 12.0922 48.915 12.7386 48.6224 13.4442C48.3248 14.163 48.0289 14.9377 47.7349 15.7683C46.6514 15.6362 45.5998 15.4889 44.593 15.3272C43.6106 15.17 42.6668 14.9984 41.7731 14.8147C42.4367 14.0675 43.116 13.3728 43.811 12.7305C44.4952 12.0951 45.2162 11.5005 45.9703 10.95C46.5124 11.0586 47.0887 11.1611 47.6931 11.2537C48.2754 11.3464 48.8783 11.4306 49.4986 11.505H49.4948ZM54.3791 13.9597C54.5538 14.7091 54.7178 15.5117 54.8696 16.362C54.3184 16.3367 53.7596 16.3063 53.1932 16.2709C52.6131 16.2345 52.0196 16.1912 51.4127 16.1411C50.8058 16.091 50.2131 16.0371 49.6345 15.9794V15.9847C49.0747 15.928 48.5179 15.8667 47.9641 15.8009C48.2542 14.9832 48.5473 14.2171 48.8403 13.5087C49.1334 12.8003 49.4318 12.136 49.7302 11.5347C50.0491 11.5726 50.3794 11.6106 50.7172 11.6417C51.071 11.6766 51.4195 11.71 51.7718 11.7374C52.1241 11.7647 52.4764 11.7905 52.8257 11.8133C53.1587 11.8351 53.49 11.8535 53.8196 11.8687C54.0215 12.508 54.2113 13.2111 54.3829 13.9597H54.3791ZM54.0595 11.8809C54.6874 11.9082 55.2963 11.9242 55.8817 11.9287C56.4891 11.9333 57.0775 11.9287 57.628 11.9074C58.2812 12.5736 58.8952 13.2771 59.4669 14.0144C60.0635 14.7825 60.621 15.5803 61.1373 16.4045C60.2262 16.4402 59.265 16.4554 58.2703 16.4509C57.2491 16.4463 56.1884 16.4205 55.0997 16.3749C54.9448 15.5063 54.7793 14.6944 54.6031 13.9392C54.4335 13.1982 54.2523 12.5121 54.0595 11.8809ZM47.889 16.0204C48.4458 16.0867 49.0175 16.1489 49.6042 16.2071C50.1999 16.2669 50.7972 16.3213 51.396 16.3704C51.9948 16.4195 52.5931 16.4633 53.1909 16.5017C53.771 16.5389 54.3465 16.5708 54.9137 16.5959C55.1103 17.7264 55.288 18.9412 55.4451 20.2282C55.6023 21.5151 55.7337 22.8544 55.8437 24.2659C55.0298 24.23 54.2012 24.1857 53.3579 24.133C52.5146 24.0804 51.6542 24.0181 50.7764 23.9463C49.8987 23.8744 49.04 23.7957 48.2003 23.7101C47.3666 23.6266 46.5413 23.5355 45.7243 23.4368C46.063 22.061 46.4145 20.7498 46.7759 19.5137C47.1373 18.2776 47.5101 17.1023 47.889 16.0204ZM55.704 20.4681C55.5583 19.2427 55.392 18.0696 55.2052 16.9588C55.1847 16.8335 55.165 16.7249 55.146 16.6156V16.6057C56.2439 16.6505 57.3046 16.6764 58.3182 16.6817C59.3629 16.687 60.356 16.671 61.2884 16.6338C62.0123 17.8103 62.6686 19.0271 63.2541 20.2783C63.87 21.5913 64.4196 22.9343 64.9009 24.3024C63.5753 24.3593 62.1615 24.3866 60.6779 24.3828C59.2095 24.379 57.6705 24.3441 56.0761 24.2765C55.9721 22.9607 55.8483 21.6882 55.704 20.4689V20.4681ZM63.4743 20.2229C62.8983 18.99 62.2547 17.7898 61.5465 16.6278C62.321 16.5936 63.0544 16.5442 63.7393 16.4805V16.4744C64.4416 16.4091 65.0923 16.3286 65.6822 16.2345C66.7287 17.3507 67.7001 18.5349 68.5902 19.7794C69.4924 21.0404 70.315 22.3565 71.0532 23.72C70.2355 23.8544 69.332 23.969 68.3563 24.0632C67.3587 24.1589 66.2813 24.234 65.1371 24.2872C64.6512 22.9054 64.0962 21.549 63.4743 20.2229ZM73.5914 23.3912C74.1294 23.2419 74.6513 23.0397 75.1494 22.7876C76.1628 24.3136 77.0515 25.9188 77.8068 27.5877C78.5596 29.2466 79.1749 30.9645 79.6465 32.7241C79.0652 33.0376 78.4517 33.2873 77.8167 33.4689C76.9414 33.7275 76.0518 33.9352 75.1525 34.0907C74.7646 32.3063 74.255 30.5506 73.6271 28.8359C73.0052 27.1375 72.2664 25.4842 71.4161 23.8878C72.1518 23.7625 72.88 23.597 73.5975 23.392L73.5914 23.3912ZM69.2196 15.0394C69.3153 14.9542 69.397 14.8546 69.4618 14.744C70.299 15.3899 71.1066 16.0788 71.8846 16.8107C72.6707 17.5513 73.4229 18.3341 74.1411 19.1591C74.4858 19.5555 74.8189 19.9576 75.1403 20.3656C75.4617 20.7736 75.7702 21.1846 76.0659 21.5986C76.0137 21.7702 75.9207 21.9265 75.7948 22.0542C75.629 22.2243 75.4401 22.3702 75.2337 22.4877C74.972 22.0975 74.7025 21.7128 74.4251 21.3337C74.1381 20.9414 73.8395 20.5509 73.5292 20.1621C72.8109 19.2626 72.0542 18.4054 71.259 17.5905C70.481 16.7907 69.6691 16.034 68.8233 15.3203C68.9661 15.2422 69.1 15.1488 69.2227 15.0417L69.2196 15.0394ZM71.0806 17.737C71.8799 18.5554 72.6375 19.4135 73.3507 20.3079C73.6544 20.687 73.9501 21.074 74.2376 21.4688C74.5114 21.8439 74.7764 22.2217 75.0325 22.6024C74.5464 22.8446 74.0378 23.0389 73.514 23.1824C72.786 23.3883 72.0471 23.5536 71.3007 23.6775C71.1049 23.3146 70.9024 22.9549 70.6933 22.5986C70.4807 22.2326 70.2598 21.8672 70.0305 21.5022C69.4165 20.5167 68.7648 19.5752 68.0754 18.6778C67.4057 17.8051 66.7057 16.976 65.9753 16.1904C66.4796 16.1052 66.9793 15.9947 67.4726 15.8594C67.8638 15.7553 68.245 15.6163 68.6114 15.4441C69.4674 16.1633 70.2914 16.9284 71.0836 17.7393L71.0806 17.737ZM61.5002 11.4587C61.7446 11.3983 61.9844 11.3204 62.2177 11.2256C63.3291 11.7858 64.4077 12.4086 65.4484 13.0911C66.4748 13.7651 67.4633 14.4951 68.4095 15.2778C68.0626 15.4289 67.7044 15.5525 67.3382 15.6476C66.8228 15.7842 66.3007 15.8944 65.7741 15.9778C64.9828 15.1397 64.1464 14.3453 63.2685 13.5983C62.4412 12.8953 61.5759 12.2384 60.6764 11.6303C60.9809 11.5794 61.2565 11.5225 61.5002 11.4587ZM63.0187 13.7099C63.8794 14.4375 64.7006 15.2105 65.4787 16.0257C65.2763 16.056 65.0662 16.0854 64.8486 16.1137C64.5896 16.1464 64.3171 16.1775 64.0415 16.2056C63.6284 16.2476 63.1982 16.2843 62.7507 16.3157C62.3114 16.3456 61.8601 16.3709 61.397 16.3916C60.8702 15.545 60.3013 14.7252 59.6924 13.9354C59.1434 13.2233 58.5561 12.5415 57.9332 11.893C58.3645 11.8756 58.776 11.8497 59.1556 11.8171C59.5732 11.7814 59.9635 11.7412 60.3226 11.6857C61.2615 12.308 62.1637 12.9839 63.0248 13.7099H63.0187ZM54.4118 8.88939C54.5371 8.88408 54.6555 8.87648 54.7679 8.86813C55.7013 9.20754 56.614 9.60152 57.5012 10.048C58.3654 10.4831 59.2053 10.9647 60.0174 11.4906C59.7046 11.5293 59.3682 11.5665 59.0121 11.5916C58.5991 11.6242 58.1625 11.6493 57.707 11.6675C57.1453 11.1006 56.55 10.5682 55.9242 10.0731C55.3862 9.647 54.8222 9.25472 54.2356 8.8985C54.2945 8.89902 54.3533 8.89598 54.4118 8.88939ZM53.2941 8.89698C53.4642 8.89698 53.6328 8.90154 53.7975 8.89698C54.4527 9.27278 55.0807 9.69419 55.6767 10.1581C56.2804 10.628 56.8559 11.133 57.4002 11.6706C56.8892 11.685 56.354 11.6911 55.7989 11.6873C55.2181 11.6827 54.613 11.6675 53.9904 11.6402C53.8107 11.0662 53.6229 10.5423 53.427 10.0685C53.2605 9.66307 53.0711 9.26737 52.8599 8.88332C53.0049 8.88863 53.1484 8.89395 53.2941 8.89698ZM51.434 8.77398L51.7058 8.80739L52.0095 8.83473C52.1067 8.84308 52.2092 8.85067 52.3132 8.8575C52.4035 8.86358 52.4962 8.86965 52.5903 8.87421C52.8196 9.27436 53.0225 9.68903 53.1977 10.1156C53.3891 10.5742 53.5728 11.0804 53.7489 11.6341C53.4452 11.6199 53.1345 11.6027 52.8166 11.5825C52.4817 11.5612 52.1393 11.5362 51.7923 11.5066C51.4454 11.4769 51.0984 11.4466 50.7696 11.4139C50.4614 11.3825 50.1521 11.3489 49.8418 11.3129C50.1053 10.7951 50.3733 10.3259 50.6337 9.90072C50.8761 9.50845 51.1434 9.1321 51.434 8.77398ZM50.2442 8.6153C50.4082 8.64111 50.576 8.66769 50.7446 8.69123V8.6973C50.8843 8.7178 51.0278 8.73678 51.1735 8.75424C50.9022 9.10016 50.651 9.4614 50.4211 9.83619C50.1523 10.2705 49.8805 10.7572 49.6095 11.294C48.9884 11.218 48.3893 11.1353 47.8176 11.0457C47.2732 10.9599 46.7455 10.8673 46.2414 10.7686C46.8646 10.3254 47.5136 9.91973 48.1851 9.55374C48.8486 9.19308 49.5367 8.8795 50.2442 8.6153ZM46.4016 9.13615C47.3505 8.83941 48.3162 8.59932 49.2936 8.41713C49.4067 8.44219 49.5176 8.46876 49.6345 8.49306C49.6922 8.50521 49.7514 8.51811 49.8107 8.5295C49.1731 8.78566 48.552 9.08134 47.9512 9.4148C47.2541 9.8018 46.5809 10.2305 45.9354 10.6987C45.4874 10.6076 45.0607 10.5119 44.6591 10.4125C44.3121 10.3267 43.9872 10.2378 43.6834 10.1482C44.5711 9.76327 45.4784 9.42544 46.4016 9.13615ZM40.3617 11.852C41.3264 11.2752 42.3237 10.7548 43.3486 10.2933C43.6941 10.4026 44.0714 10.5097 44.4761 10.6122C44.8497 10.7073 45.2483 10.7992 45.6719 10.8878C44.9518 11.4254 44.2616 12.0021 43.6045 12.6151C42.8928 13.2782 42.1986 13.9939 41.5218 14.7623C41.0724 14.6676 40.6312 14.5687 40.1984 14.4654C39.7657 14.3629 39.3473 14.2566 38.9464 14.148C38.6754 14.0774 38.4149 14.0015 38.1674 13.9256C37.9594 13.8633 37.7559 13.7995 37.56 13.7357C38.4598 13.0586 39.3951 12.4298 40.3617 11.852ZM36.5441 21.9426C35.425 21.7049 34.3749 21.4551 33.4046 21.1977C32.4555 20.9449 31.5824 20.6845 30.7996 20.4195C31.7499 19.1939 32.7759 18.029 33.8715 16.9315C34.9524 15.8483 36.1039 14.838 37.3186 13.9073C37.8865 14.0972 38.5144 14.2817 39.1955 14.4601C39.8591 14.6339 40.5743 14.8025 41.3351 14.9635C40.4458 15.9947 39.6144 17.0745 38.8447 18.1979C38.0391 19.3717 37.2677 20.6237 36.5441 21.9426ZM40.9372 22.7649C39.4726 22.5272 38.0832 22.2698 36.7848 21.9972C37.5023 20.6944 38.2654 19.4568 39.0626 18.2959C39.8439 17.1577 40.6896 16.0652 41.5955 15.0234C42.5066 15.2117 43.4876 15.3902 44.5186 15.5549C45.5209 15.7151 46.5686 15.8586 47.6604 15.9938L47.6551 16.0105C47.6179 16.116 47.5792 16.2231 47.5428 16.3324C47.1783 17.3954 46.823 18.5252 46.4798 19.7126C46.1366 20.9001 45.8094 22.1271 45.4928 23.4095C43.9074 23.2151 42.3798 22.9979 40.9372 22.7633V22.7649ZM56.2158 34.8538C55.2009 34.8097 54.1673 34.7551 53.115 34.6898C52.0626 34.6245 50.9954 34.5473 49.9132 34.4582C48.8254 34.3651 47.7597 34.2679 46.7159 34.1666C45.6722 34.0654 44.6434 33.9508 43.6295 33.8227C43.9211 32.0217 44.2369 30.2747 44.5756 28.5944C44.9195 26.8793 45.2855 25.2317 45.6674 23.6669C46.4849 23.7651 47.3185 23.8572 48.1684 23.9432C49.0289 24.0308 49.8914 24.11 50.7559 24.1809C51.6205 24.2517 52.484 24.3143 53.3465 24.3684C54.1908 24.4216 55.0286 24.4661 55.8597 24.502C55.9819 26.1094 56.0746 27.7942 56.1345 29.5397C56.193 31.2541 56.2211 33.0316 56.2158 34.8538ZM56.0928 24.5081C57.6758 24.5742 59.2194 24.6091 60.7045 24.6121C62.1896 24.6152 63.6261 24.5863 64.9776 24.5241C65.5513 26.1797 66.0379 27.8643 66.4354 29.5709C66.8378 31.2891 67.162 33.0634 67.4012 34.8743C65.7574 34.9502 63.9997 34.9882 62.1532 34.9859C60.331 34.9859 58.4252 34.9426 56.4474 34.8599C56.4534 33.0414 56.4261 31.2587 56.3661 29.5283C56.3061 27.7965 56.2135 26.1185 56.0928 24.5081ZM56.212 43.0431H56.2082C56.2623 42.0723 56.3074 41.0934 56.3433 40.1063C56.3742 39.2534 56.3995 38.4051 56.4193 37.5613C56.436 36.7322 56.4461 35.9086 56.4496 35.0907C58.4154 35.1719 60.331 35.2144 62.1707 35.2159C64.0103 35.2175 65.7703 35.1795 67.4338 35.1013C67.6449 36.7504 67.7861 38.4314 67.8507 40.1322C67.9152 41.8124 67.9061 43.5124 67.8165 45.2192C67.8104 45.3384 67.8036 45.4622 67.796 45.5859L67.7763 45.8972C66.0155 45.9815 64.1318 46.0255 62.1464 46.0248C60.1966 46.0248 58.1489 45.9822 56.0267 45.8949C56.0966 44.955 56.1583 44.0044 56.212 43.0431ZM55.518 51.3305C55.7086 49.654 55.8741 47.9024 56.0085 46.1288C58.1185 46.2153 60.1723 46.2586 62.1441 46.2586C64.1045 46.2586 65.9844 46.2153 67.7626 46.1288C67.6432 47.8629 67.4362 49.5899 67.1423 51.3031C66.8599 52.9474 66.4863 54.5748 66.0231 56.1776C64.3528 56.2619 62.5564 56.3066 60.6711 56.3089C58.8216 56.3089 56.8801 56.2725 54.8689 56.192C55.1095 54.634 55.3274 53.0069 55.518 51.3305ZM62.3202 64.5674C60.9308 64.6433 59.4411 64.682 57.8755 64.6874C56.3486 64.6927 54.7466 64.6646 53.0922 64.6008C53.2623 64.001 53.4288 63.3683 53.5918 62.7027C53.7588 62.0168 53.9205 61.3 54.0769 60.5524C54.2129 59.901 54.3442 59.2275 54.4702 58.5373C54.5963 57.8472 54.7147 57.1434 54.8301 56.4205C56.8293 56.501 58.7783 56.5413 60.6491 56.5397C62.5017 56.5397 64.2768 56.4957 65.9495 56.4122C65.5433 57.7873 65.0565 59.1373 64.4917 60.4552C63.9592 61.6953 63.3402 62.8964 62.6391 64.0496C62.5814 64.1445 62.5245 64.2356 62.469 64.3237C62.4136 64.4117 62.3696 64.4854 62.3202 64.5674ZM71.7229 59.2822C71.0672 60.4577 70.3267 61.5839 69.5074 62.6518C69.3434 62.8644 69.1748 63.077 69.0032 63.2873C68.8316 63.4976 68.6646 63.6942 68.4953 63.8886C67.6806 64.045 66.7664 64.1794 65.7673 64.291C64.7893 64.4004 63.7286 64.4877 62.5989 64.5522C62.627 64.5082 62.6558 64.4626 62.6862 64.4133C62.7317 64.3434 62.7811 64.2614 62.838 64.1695C63.5452 63.0019 64.1691 61.7859 64.7051 60.5304C65.2808 59.1842 65.776 57.805 66.1879 56.4C66.7006 56.3737 67.2035 56.3428 67.6965 56.3074C68.1895 56.272 68.678 56.233 69.1619 56.1905C69.987 56.1151 70.7637 56.0295 71.4921 55.9339C72.1896 55.8412 72.842 55.74 73.4494 55.6301C72.9563 56.8848 72.3795 58.1049 71.7229 59.2822ZM73.5451 55.3804C72.5421 55.5649 71.4108 55.7251 70.1953 55.8549C68.9797 55.9847 67.6609 56.0865 66.2555 56.1624C66.7132 54.5679 67.083 52.9495 67.3632 51.3145C67.6579 49.5933 67.865 47.8581 67.9835 46.1159C68.7018 46.0787 69.395 46.0354 70.0685 45.9853C70.7419 45.9352 71.4101 45.8759 72.0562 45.8099C72.7517 45.74 73.4092 45.658 74.0303 45.5768C74.6296 45.4948 75.197 45.4062 75.7325 45.3111L75.728 45.3801C75.7204 45.4925 75.7128 45.6041 75.7029 45.7248C75.5659 47.408 75.3122 49.0796 74.9437 50.7276C74.5931 52.3107 74.1264 53.8658 73.5474 55.3804H73.5451ZM78.1007 53.9188C77.6595 54.2012 77.0696 54.4616 76.3468 54.6978C75.5162 54.9612 74.67 55.1724 73.8131 55.3302C74.3775 53.8359 74.8342 52.3031 75.1798 50.7436C75.5452 49.0962 75.7968 47.4257 75.933 45.7438C75.9451 45.592 75.9558 45.4295 75.9664 45.2685C76.9152 45.1004 77.8533 44.8763 78.7757 44.5974C79.4278 44.4045 80.0583 44.1447 80.6571 43.8221V43.8464C80.5156 45.5982 80.2284 47.335 79.7984 49.039C79.3743 50.7112 78.807 52.3438 78.1029 53.9188H78.1007ZM80.7535 48.0398C80.2884 49.7694 79.6788 51.4568 78.9313 53.0844C78.866 53.2163 78.7818 53.338 78.6815 53.4458H78.6883C78.6223 53.5177 78.5518 53.5854 78.4773 53.6485C79.1232 52.1469 79.6473 50.5958 80.0444 49.0102C80.4664 47.321 80.7491 45.6001 80.8894 43.8647L80.8985 43.7402V43.6809C81.0996 43.5558 81.2873 43.4106 81.4589 43.2474C81.5454 43.1646 81.6252 43.075 81.6973 42.9794C81.5175 44.6884 81.2027 46.3805 80.7558 48.0398H80.7535ZM81.7724 42.2186C81.749 42.4539 81.6577 42.6773 81.5097 42.8617C81.3427 43.0726 81.1436 43.256 80.9198 43.4053C81.1604 39.8463 80.8219 36.2718 79.9176 32.8212C80.1603 32.6763 80.3833 32.5007 80.5812 32.2989C80.7027 32.1728 80.805 32.0295 80.8849 31.8737C81.3145 33.5241 81.6063 35.2073 81.7573 36.9061C81.9125 38.6733 81.9176 40.4505 81.7724 42.2186Z" fill="url(#paint1_linear_296_1147)"/>
<path fill-rule="evenodd" clip-rule="evenodd" d="M11.3722 64.6456L28.5019 54.6689H23.162L10.8984 60.4606L11.3722 64.6456Z" fill="white"/>
<path fill-rule="evenodd" clip-rule="evenodd" d="M28.5017 54.6689V56.8488L11.3721 66.8247V64.2007L28.5017 54.6689Z" fill="#FDFDFD"/>
<path fill-rule="evenodd" clip-rule="evenodd" d="M0.00244141 66.8247H11.3723L29.0684 35.9729L28.5111 17.5427L0.00244141 66.8247Z" fill="#FDFDFD"/>
<path fill-rule="evenodd" clip-rule="evenodd" d="M26.8369 39.8634L28.9522 18.4234L47.6915 55.8321L36.3087 55.8594L26.8369 39.8634Z" fill="white"/>
<path fill-rule="evenodd" clip-rule="evenodd" d="M28.5107 17.5427V21.5174L41.2944 43.0621L28.5107 17.5427Z" fill="#F9F9F9"/>
<path fill-rule="evenodd" clip-rule="evenodd" d="M28.5314 17.5427V21.5174L14.3052 42.1837L28.5314 17.5427Z" fill="#F9F9F9"/>
<path fill-rule="evenodd" clip-rule="evenodd" d="M23.3799 52.0912H26.6272V46.4659L23.3799 52.0912Z" fill="white"/>
<path fill-rule="evenodd" clip-rule="evenodd" d="M26.6274 46.4659V52.0912H29.8748L26.6274 46.4659Z" fill="#F9F9F9"/>
<path fill-rule="evenodd" clip-rule="evenodd" d="M38.3168 60.2996L36.9228 63.0466L36.6837 62.9092C36.69 62.8637 36.6928 62.8177 36.692 62.7718C36.692 62.5759 36.5288 62.3716 36.1955 62.1492C35.1758 61.437 33.9868 61.0862 32.6163 61.0862C32.0745 61.0794 31.5347 61.1542 31.0151 61.3079C30.3401 61.5418 29.8845 62.03 29.8845 62.5675C29.8845 63.0056 30.1503 63.3032 30.6817 63.4672C30.9566 63.5432 31.5473 63.6282 32.444 63.7246L33.7879 63.8613C34.4418 63.9207 35.0893 64.0381 35.7225 64.2121C36.1937 64.3488 36.6396 64.5611 37.0428 64.8407C37.8203 65.3958 38.2994 66.3714 38.2994 67.4055C38.3062 68.2072 38.0252 68.9847 37.5075 69.5967C37.0284 70.1783 36.2836 70.605 35.2722 70.8875C34.4834 71.1043 33.6683 71.2106 32.8502 71.2033C31.3023 71.2033 29.7762 70.8323 28.2718 70.0903C27.953 69.9468 27.7578 69.8678 27.6963 69.8678C27.6204 69.8678 27.5096 69.9293 27.3456 70.0576L27.0942 69.9278L28.3622 67.0585L28.6105 67.1785V67.2893C28.6105 67.5467 28.7304 67.7859 28.9787 68.0023C29.347 68.3356 29.9194 68.6188 30.7 68.8587C31.4141 69.088 32.1586 69.209 32.9086 69.2179C33.6679 69.2179 34.311 69.0896 34.8516 68.8322C35.4415 68.549 35.8272 68.0342 35.8272 67.5232C35.8272 67.1375 35.62 66.8543 35.2024 66.688C34.9101 66.5772 34.3201 66.4663 33.4371 66.3729L32.1167 66.2401C31.2345 66.1469 30.6091 66.0611 30.2406 65.9827C29.8609 65.8914 29.4932 65.7561 29.145 65.5795C28.6299 65.3271 28.2032 64.9248 27.9211 64.4254C27.6497 63.9384 27.5117 63.3884 27.5209 62.831C27.5209 61.8439 27.8626 61.0255 28.5376 60.3824C29.429 59.535 30.765 59.1104 32.5457 59.1083C33.2477 59.1018 33.9481 59.1783 34.6322 59.3361C35.2753 59.4796 36.0816 59.7628 37.0481 60.166C37.3814 60.2943 37.5796 60.3619 37.6555 60.3619C37.7755 60.3619 37.9099 60.2943 38.0731 60.166L38.3131 60.2943L38.3168 60.2996ZM42.8633 65.8718V69.0744H50.38C50.7216 69.0744 50.8856 68.9369 50.9965 68.5247H51.2713V71.5488H50.9965C50.8856 71.1365 50.7216 70.9998 50.38 70.9998H39.7632V70.725C40.1748 70.6134 40.3122 70.4501 40.3122 70.0994V60.2093C40.3122 59.8585 40.1748 59.6983 39.7632 59.5867V59.3126H50.1734C50.5151 59.3126 50.6783 59.166 50.79 58.7545H51.0641V61.7809H50.79C50.6783 61.3778 50.5151 61.2403 50.1734 61.2403H42.8633V64.0131H47.6056C47.9473 64.0131 48.1113 63.8765 48.2221 63.4672H48.497V66.4208H48.2221C48.1113 66.0176 47.9473 65.8718 47.6056 65.8718H42.8633ZM55.877 66.2309V70.1085C55.877 70.4501 56.0228 70.6225 56.4229 70.725V70.9998H52.7785V70.725C53.19 70.6134 53.3274 70.4501 53.3274 70.1085V60.2093C53.3274 59.8585 53.19 59.6983 52.7785 59.5867V59.3126H60.0886C60.9792 59.3126 61.6831 59.3619 62.2039 59.4644C62.6905 59.552 63.155 59.7349 63.5706 60.0027C64.0176 60.298 64.3689 60.7173 64.5811 61.2092C64.796 61.7085 64.9044 62.2472 64.8993 62.7907C64.8993 64.7015 63.8406 65.8176 61.7233 66.1391L63.9904 69.3644C64.3936 69.9278 64.689 70.2983 64.8636 70.4593C65.0569 70.6215 65.2986 70.715 65.5507 70.725V70.9998H61.3201V70.725C61.6124 70.684 61.7582 70.5785 61.7582 70.4213C61.7582 70.3188 61.6208 70.0705 61.3551 69.6757L58.9945 66.2309H55.877ZM55.877 64.3055H59.8153C60.227 64.3137 60.6388 64.2962 61.0483 64.2531C61.2791 64.2247 61.5023 64.1523 61.7058 64.0397C62.1439 63.8119 62.3573 63.3792 62.3573 62.7718C62.3573 62.1643 62.1439 61.7376 61.7058 61.5068C61.5028 61.3931 61.2794 61.3206 61.0483 61.2935C60.6389 61.2495 60.227 61.2317 59.8153 61.2403H55.877V64.3093V64.3055ZM77.7437 66.9849L79.3715 69.4244L79.1491 69.5762C78.9858 69.4305 78.8567 69.3485 78.755 69.3485C78.6533 69.3485 78.3602 69.4859 77.8902 69.7607C76.9032 70.3241 76.0839 70.7098 75.4097 70.9087C74.7355 71.1077 73.9458 71.198 73.0196 71.198C71.1786 71.198 69.6659 70.7617 68.4815 69.8891C67.7982 69.3913 67.2369 68.7449 66.8399 67.9985C66.3752 67.1204 66.1372 66.1401 66.1475 65.1467C66.1475 63.736 66.556 62.503 67.3859 61.4567C68.628 59.8906 70.5087 59.1061 73.0279 59.103C73.9542 59.103 74.7491 59.1964 75.4097 59.3923C76.0703 59.5882 76.8963 59.9655 77.8902 60.5403C78.3602 60.8068 78.6495 60.9412 78.755 60.9412C78.8605 60.9412 78.9828 60.8653 79.1491 60.7187L79.3715 60.8706L77.7482 63.3222L77.5204 63.1704C77.5296 63.0762 77.5379 63.0003 77.5379 62.9388C77.5379 62.6062 77.2896 62.358 76.5623 61.9457C75.5868 61.3833 74.4803 61.0882 73.3544 61.09C72.0191 61.09 70.9546 61.4241 70.1609 62.0922C69.2255 62.872 68.7556 63.8977 68.7556 65.1566C68.7556 66.4154 69.2255 67.442 70.1609 68.2217C70.9551 68.8873 72.0196 69.2214 73.3544 69.2239C74.4803 69.2258 75.5868 68.9306 76.5623 68.3683C77.2896 67.956 77.5379 67.7077 77.5379 67.3744C77.5379 67.3129 77.5296 67.237 77.5204 67.1519L77.7437 66.9849Z" fill="white"/>
<path fill-rule="evenodd" clip-rule="evenodd" d="M70.2778 65.3874C69.883 61.6071 75.4818 61.0407 75.9093 64.7094C75.9557 65.0779 75.9291 65.452 75.8309 65.8103C75.7327 66.1685 75.5649 66.5039 75.3369 66.7973C75.109 67.0906 74.8256 67.3362 74.5027 67.5199C74.1798 67.7036 73.8239 67.8218 73.4553 67.8679C71.7948 68.0691 70.4274 66.8186 70.2778 65.3874ZM70.9665 67.9355C70.7949 68.3204 70.5739 68.631 70.3902 69.0319L70.0106 68.9043L67.7222 72.8608C67.9439 73.1303 68.7373 73.5798 69.0509 73.6201L71.2732 69.7182L71.0295 69.3781L71.6445 68.3151C73.0734 68.6765 74.204 68.8276 75.5585 67.6606C76.8925 66.5111 77.3131 63.4293 74.9025 61.9867C73.0241 60.8622 70.9855 61.8098 70.1298 63.0815C69.3819 64.1931 69.3462 65.8278 70.1298 67.0191C70.4084 67.4435 70.6947 67.5741 70.9665 67.9355Z" fill="white"/>
<path fill-rule="evenodd" clip-rule="evenodd" d="M70.7202 64.6372C71.0877 64.2576 71.4119 63.7406 71.9426 63.367C72.4179 63.0329 72.9578 62.8469 73.6008 62.6222C72.1332 62.3056 70.8554 63.4353 70.7202 64.6372Z" fill="white"/>
</g>
<defs>
<linearGradient id="paint0_linear_296_1147" x1="55.5013" y1="81.076" x2="55.5013" y2="1.80326" gradientUnits="userSpaceOnUse">
<stop stop-color="#0068B4"/>
<stop offset="0.05" stop-color="#066CB6"/>
<stop offset="0.11" stop-color="#1776BB"/>
<stop offset="0.19" stop-color="#3487C3"/>
<stop offset="0.27" stop-color="#5C9ECF"/>
<stop offset="0.36" stop-color="#8FBDDE"/>
<stop offset="0.46" stop-color="#CCE1F0"/>
<stop offset="0.53" stop-color="white"/>
</linearGradient>
<linearGradient id="paint1_linear_296_1147" x1="56.3099" y1="70.5344" x2="56.3099" y2="8.37917" gradientUnits="userSpaceOnUse">
<stop stop-color="#0068B4"/>
<stop offset="0.03" stop-color="#1273B9"/>
<stop offset="0.09" stop-color="#418EC7"/>
<stop offset="0.17" stop-color="#8CBBDD"/>
<stop offset="0.28" stop-color="#F2F7FB"/>
<stop offset="0.29" stop-color="white"/>
</linearGradient>
<clipPath id="clip0_296_1147">
<rect width="82" height="82" fill="white"/>
</clipPath>
</defs>
</svg>
